<svg class="main-svg" xmlns="http://www.w3.org/2000/svg" xmlns:xlink="http://www.w3.org/1999/xlink" width="650" height="400" style="" viewBox="0 0 650 400"><rect x="0" y="0" width="650" height="400" style="fill: rgb(255, 255, 255); fill-opacity: 1;"/><defs id="defs-f6f135"><g class="clips"/><g class="gradients"/><g class="patterns"/></defs><g class="bglayer"/><g class="layer-below"><g class="imagelayer"/><g class="shapelayer"/></g><g class="cartesianlayer"/><g class="polarlayer"/><g class="smithlayer"/><g class="ternarylayer"/><g class="geolayer"/><g class="funnelarealayer"/><g class="pielayer"/><g class="iciclelayer"/><g class="treemaplayer"/><g class="sunburstlayer"><g class="trace sunburst" stroke-linejoin="round" style="opacity: 1;"><g class="slice cursor-pointer"><path class="surface" d="M325,200L420,200A95,95 0,1,0 249.57511596648513,257.7588683106831L325,200A0,0 0,1,1 325,200Z" style="pointer-events: none; stroke-width: 1; fill: rgb(156, 15, 72); fill-opacity: 1; stroke: rgb(255, 255, 255); stroke-opacity: 1;"/><g class="slicetext"><text data-notex="1" class="slicetext" text-anchor="middle" x="0" y="0" style="font-family: 'Open Sans', verdana, arial, sans-serif; font-size: 15px; fill: rgb(255, 255, 255); fill-opacity: 1; white-space: pre;" transform="translate(320.2480178821215,184.42093384112457)rotate(-18.722085165719136)">Violência psicológica</text></g></g><g class="slice cursor-pointer"><path class="surface" d="M325,200L249.57511596648513,257.7588683106831A95,95 0,0,0 410.72848225625523,240.93442719812919L325,200A0,0 0,0,1 325,200Z" style="pointer-events: none; stroke-width: 1; fill: rgb(111, 207, 151); fill-opacity: 1; stroke: rgb(255, 255, 255); stroke-opacity: 1;"/><g class="slicetext"><text data-notex="1" class="slicetext" text-anchor="middle" x="0" y="0" style="font-family: 'Open Sans', verdana, arial, sans-serif; font-size: 15px; fill: rgb(68, 68, 68); fill-opacity: 1; white-space: pre;" transform="translate(332.0580654886,262.79057914242577)rotate(-5.960098680682222)">Violência física</text></g></g><g class="slice cursor-pointer"><path class="surface" d="M325,200L410.72848225625523,240.93442719812919A95,95 0,0,0 420,199.99999999999994L325,200A0,0 0,0,1 325,200Z" style="pointer-events: none; stroke-width: 1; fill: rgb(114, 39, 112); fill-opacity: 1; stroke: rgb(255, 255, 255); stroke-opacity: 1;"/><g class="slicetext"><text data-notex="1" class="slicetext" text-anchor="middle" x="0" y="0" style="font-family: 'Open Sans', verdana, arial, sans-serif; font-size: 15px; fill: rgb(255, 255, 255); fill-opacity: 1; white-space: pre;" transform="translate(383.8149747826366,216.81715456803516)scale(0.568231840020834)rotate(12.76198648503697)">Violência sexual</text></g></g><g class="slice"><path class="surface" d="M420,200L515,200A190,190 0,1,0 158.44377720164795,291.4277017492276L241.72188860082397,245.7138508746138A95,95 0,1,1 420,200Z" style="pointer-events: none; stroke-width: 1; fill: rgb(156, 15, 72); fill-opacity: 1; stroke: rgb(255, 255, 255); stroke-opacity: 1; opacity: 0.7;"/><g class="slicetext"><text data-notex="1" class="slicetext" text-anchor="middle" x="0" y="0" style="font-family: 'Open Sans', verdana, arial, sans-serif; font-size: 15px; fill: rgb(255, 255, 255); fill-opacity: 1; white-space: pre;" transform="translate(294.60843014709206,79.46378505455446)rotate(-14.381851335407077)">Ameaça</text></g></g><g class="slice"><path class="surface" d="M241.72188860082397,245.7138508746138L158.44377720164795,291.4277017492276A190,190 0,0,0 174.1502319329703,315.5177366213663L249.57511596648516,257.75886831068317A95,95 0,0,1 241.72188860082397,245.7138508746138Z" style="pointer-events: none; stroke-width: 1; fill: rgb(156, 15, 72); fill-opacity: 1; stroke: rgb(255, 255, 255); stroke-opacity: 1; opacity: 0.7;"/><g class="slicetext"><text data-notex="1" class="slicetext" text-anchor="middle" x="0" y="0" style="font-family: 'Open Sans', verdana, arial, sans-serif; font-size: 15px; fill: rgb(255, 255, 255); fill-opacity: 1; white-space: pre;" transform="translate(208.03504816892703,280.82759836918126)scale(0.6377062990695727)rotate(-33.10393650112633)">Violência psicológica</text></g></g><g class="slice"><path class="surface" d="M249.57511596648513,257.7588683106831L174.15023193297026,315.5177366213662A190,190 0,0,0 494.98472488219926,284.883410079491L409.99236244109966,242.4417050397455A95,95 0,0,1 249.57511596648513,257.7588683106831Z" style="pointer-events: none; stroke-width: 1; fill: rgb(111, 207, 151); fill-opacity: 1; stroke: rgb(255, 255, 255); stroke-opacity: 1; opacity: 0.7;"/><g class="slicetext"><text data-notex="1" class="slicetext" text-anchor="middle" x="0" y="0" style="font-family: 'Open Sans', verdana, arial, sans-serif; font-size: 15px; fill: rgb(68, 68, 68); fill-opacity: 1; white-space: pre;" transform="translate(337.156466186047,327.3151430152537)rotate(-5.454252922878936)">Lesão corporal</text></g></g><g class="slice"><path class="surface" d="M409.99236244109966,242.4417050397455L494.98472488219926,284.883410079491A190,190 0,0,0 496.4569645125104,281.86885439625837L410.72848225625523,240.93442719812919A95,95 0,0,1 409.99236244109966,242.4417050397455Z" style="pointer-events: none; stroke-width: 1; fill: rgb(111, 207, 151); fill-opacity: 1; stroke: rgb(255, 255, 255); stroke-opacity: 1; opacity: 0.7;"/><g class="slicetext"><text data-notex="1" class="slicetext" text-anchor="middle" x="0" y="0" style="font-family: 'Open Sans', verdana, arial, sans-serif; font-size: 15px; fill: rgb(68, 68, 68); fill-opacity: 1; white-space: pre;" transform="translate(490.2921846755186,281.745724925661)scale(0.15287978469626679)rotate(26.029818727877284)">Homicídio</text></g></g><g class="slice"><path class="surface" d="M410.72848225625523,240.93442719812919L496.4569645125104,281.86885439625837A190,190 0,0,0 511.6797750307871,235.36469418013846L418.33988751539357,217.68234709006924A95,95 0,0,1 410.72848225625523,240.93442719812919Z" style="pointer-events: none; stroke-width: 1; fill: rgb(114, 39, 112); fill-opacity: 1; stroke: rgb(255, 255, 255); stroke-opacity: 1; opacity: 0.7;"/><g class="slicetext"><text data-notex="1" class="slicetext" text-anchor="middle" x="0" y="0" style="font-family: 'Open Sans', verdana, arial, sans-serif; font-size: 15px; fill: rgb(255, 255, 255); fill-opacity: 1; white-space: pre;" transform="translate(459.25248780713525,247.76055095592318)scale(0.6041139051652067)rotate(18.12549608495118)">Estupro de vulnerável</text></g></g><g class="slice"><path class="surface" d="M418.33988751539357,217.68234709006924L511.6797750307871,235.36469418013846A190,190 0,0,0 515,199.9999999999999L420,199.99999999999994A95,95 0,0,1 418.33988751539357,217.68234709006924Z" style="pointer-events: none; stroke-width: 1; fill: rgb(114, 39, 112); fill-opacity: 1; stroke: rgb(255, 255, 255); stroke-opacity: 1; opacity: 0.7;"/><g class="slicetext"><text data-notex="1" class="slicetext" text-anchor="middle" x="0" y="0" style="font-family: 'Open Sans', verdana, arial, sans-serif; font-size: 15px; fill: rgb(255, 255, 255); fill-opacity: 1; white-space: pre;" transform="translate(466.47333851573404,217.02965873390974)scale(0.6218307510862734)rotate(5.363509599914153)">Importunação sexual</text></g></g></g></g><g class="glimages"/><defs id="topdefs-f6f135"><g class="clips"/></defs><g class="layer-above"><g class="imagelayer"/><g class="shapelayer"/></g><g class="infolayer"><g class="g-gtitle"/></g></svg>