<svg class="main-svg" xmlns="http://www.w3.org/2000/svg" xmlns:xlink="http://www.w3.org/1999/xlink" width="650" height="400" style="" viewBox="0 0 650 400"><rect x="0" y="0" width="650" height="400" style="fill: rgb(255, 255, 255); fill-opacity: 1;"/><defs id="defs-3dae2f"><g class="clips"><clipPath id="clip3dae2fxyplot" class="plotclip"><rect width="486" height="332"/></clipPath><clipPath class="axesclip" id="clip3dae2fx"><rect x="64" y="0" width="486" height="400"/></clipPath><clipPath class="axesclip" id="clip3dae2fy"><rect x="0" y="10" width="650" height="332"/></clipPath><clipPath class="axesclip" id="clip3dae2fxy"><rect x="64" y="10" width="486" height="332"/></clipPath></g><g class="gradients"/><g class="patterns"/></defs><g class="bglayer"><rect class="bg" x="64" y="10" width="486" height="332" style="fill: rgb(255, 245, 238); fill-opacity: 1; stroke-width: 0;"/></g><g class="layer-below"><g class="imagelayer"/><g class="shapelayer"/></g><g class="cartesianlayer"><g class="subplot xy"><g class="layer-subplot"><g class="shapelayer"/><g class="imagelayer"/></g><g class="minor-gridlayer"><g class="x"/><g class="y"/></g><g class="gridlayer"><g class="x"><path class="xgrid crisp" transform="translate(92.05,0)" d="M0,10v332" style="stroke: rgb(255, 255, 255); stroke-opacity: 1; stroke-width: 1px;"/><path class="xgrid crisp" transform="translate(131.13,0)" d="M0,10v332" style="stroke: rgb(255, 255, 255); stroke-opacity: 1; stroke-width: 1px;"/><path class="xgrid crisp" transform="translate(170.20999999999998,0)" d="M0,10v332" style="stroke: rgb(255, 255, 255); stroke-opacity: 1; stroke-width: 1px;"/><path class="xgrid crisp" transform="translate(209.3,0)" d="M0,10v332" style="stroke: rgb(255, 255, 255); stroke-opacity: 1; stroke-width: 1px;"/><path class="xgrid crisp" transform="translate(248.38,0)" d="M0,10v332" style="stroke: rgb(255, 255, 255); stroke-opacity: 1; stroke-width: 1px;"/><path class="xgrid crisp" transform="translate(287.46000000000004,0)" d="M0,10v332" style="stroke: rgb(255, 255, 255); stroke-opacity: 1; stroke-width: 1px;"/><path class="xgrid crisp" transform="translate(326.54,0)" d="M0,10v332" style="stroke: rgb(255, 255, 255); stroke-opacity: 1; stroke-width: 1px;"/><path class="xgrid crisp" transform="translate(365.62,0)" d="M0,10v332" style="stroke: rgb(255, 255, 255); stroke-opacity: 1; stroke-width: 1px;"/><path class="xgrid crisp" transform="translate(404.7,0)" d="M0,10v332" style="stroke: rgb(255, 255, 255); stroke-opacity: 1; stroke-width: 1px;"/><path class="xgrid crisp" transform="translate(443.79,0)" d="M0,10v332" style="stroke: rgb(255, 255, 255); stroke-opacity: 1; stroke-width: 1px;"/><path class="xgrid crisp" transform="translate(482.87,0)" d="M0,10v332" style="stroke: rgb(255, 255, 255); stroke-opacity: 1; stroke-width: 1px;"/><path class="xgrid crisp" transform="translate(521.95,0)" d="M0,10v332" style="stroke: rgb(255, 255, 255); stroke-opacity: 1; stroke-width: 1px;"/></g><g class="y"><path class="ygrid crisp" transform="translate(0,288.41)" d="M64,0h486" style="stroke: rgb(255, 255, 255); stroke-opacity: 1; stroke-width: 1px;"/><path class="ygrid crisp" transform="translate(0,227.97)" d="M64,0h486" style="stroke: rgb(255, 255, 255); stroke-opacity: 1; stroke-width: 1px;"/><path class="ygrid crisp" transform="translate(0,167.54)" d="M64,0h486" style="stroke: rgb(255, 255, 255); stroke-opacity: 1; stroke-width: 1px;"/><path class="ygrid crisp" transform="translate(0,107.1)" d="M64,0h486" style="stroke: rgb(255, 255, 255); stroke-opacity: 1; stroke-width: 1px;"/><path class="ygrid crisp" transform="translate(0,46.67)" d="M64,0h486" style="stroke: rgb(255, 255, 255); stroke-opacity: 1; stroke-width: 1px;"/></g></g><g class="zerolinelayer"/><path class="xlines-below"/><path class="ylines-below"/><g class="overlines-below"/><g class="xaxislayer-below"/><g class="yaxislayer-below"/><g class="overaxes-below"/><g class="plot" transform="translate(64,10)" clip-path="url(#clip3dae2fxyplot)"><g class="scatterlayer mlayer"><g class="trace scatter trace00c7f8" style="stroke-miterlimit: 2; opacity: 1;"><g class="fills"/><g class="errorbars"/><g class="lines"><path class="js-line" d="M28.05,95.89L67.13,134.57L106.21,85.02L145.3,104.96L184.38,98.92L223.46,90.46L262.54,135.78L301.62,104.96L340.7,81.39L379.79,51.78L418.87,92.87L457.95,162.98" style="vector-effect: none; fill: none; stroke: rgb(156, 15, 72); stroke-opacity: 1; stroke-width: 2px; opacity: 1;"/></g><g class="points"><path class="point" transform="translate(28.05,95.89)" d="M3,0A3,3 0 1,1 0,-3A3,3 0 0,1 3,0Z" style="opacity: 1; stroke-width: 0px; fill: rgb(156, 15, 72); fill-opacity: 1;"/><path class="point" transform="translate(67.13,134.57)" d="M3,0A3,3 0 1,1 0,-3A3,3 0 0,1 3,0Z" style="opacity: 1; stroke-width: 0px; fill: rgb(156, 15, 72); fill-opacity: 1;"/><path class="point" transform="translate(106.21,85.02)" d="M3,0A3,3 0 1,1 0,-3A3,3 0 0,1 3,0Z" style="opacity: 1; stroke-width: 0px; fill: rgb(156, 15, 72); fill-opacity: 1;"/><path class="point" transform="translate(145.3,104.96)" d="M3,0A3,3 0 1,1 0,-3A3,3 0 0,1 3,0Z" style="opacity: 1; stroke-width: 0px; fill: rgb(156, 15, 72); fill-opacity: 1;"/><path class="point" transform="translate(184.38,98.92)" d="M3,0A3,3 0 1,1 0,-3A3,3 0 0,1 3,0Z" style="opacity: 1; stroke-width: 0px; fill: rgb(156, 15, 72); fill-opacity: 1;"/><path class="point" transform="translate(223.46,90.46)" d="M3,0A3,3 0 1,1 0,-3A3,3 0 0,1 3,0Z" style="opacity: 1; stroke-width: 0px; fill: rgb(156, 15, 72); fill-opacity: 1;"/><path class="point" transform="translate(262.54,135.78)" d="M3,0A3,3 0 1,1 0,-3A3,3 0 0,1 3,0Z" style="opacity: 1; stroke-width: 0px; fill: rgb(156, 15, 72); fill-opacity: 1;"/><path class="point" transform="translate(301.62,104.96)" d="M3,0A3,3 0 1,1 0,-3A3,3 0 0,1 3,0Z" style="opacity: 1; stroke-width: 0px; fill: rgb(156, 15, 72); fill-opacity: 1;"/><path class="point" transform="translate(340.7,81.39)" d="M3,0A3,3 0 1,1 0,-3A3,3 0 0,1 3,0Z" style="opacity: 1; stroke-width: 0px; fill: rgb(156, 15, 72); fill-opacity: 1;"/><path class="point" transform="translate(379.79,51.78)" d="M3,0A3,3 0 1,1 0,-3A3,3 0 0,1 3,0Z" style="opacity: 1; stroke-width: 0px; fill: rgb(156, 15, 72); fill-opacity: 1;"/><path class="point" transform="translate(418.87,92.87)" d="M3,0A3,3 0 1,1 0,-3A3,3 0 0,1 3,0Z" style="opacity: 1; stroke-width: 0px; fill: rgb(156, 15, 72); fill-opacity: 1;"/><path class="point" transform="translate(457.95,162.98)" d="M3,0A3,3 0 1,1 0,-3A3,3 0 0,1 3,0Z" style="opacity: 1; stroke-width: 0px; fill: rgb(156, 15, 72); fill-opacity: 1;"/></g><g class="text"/></g><g class="trace scatter trace2551e9" style="stroke-miterlimit: 2; opacity: 1;"><g class="fills"/><g class="errorbars"/><g class="lines"><path class="js-line" d="M28.05,138.2L67.13,136.99L106.21,204.68L145.3,311.65L184.38,191.99L223.46,78.97L262.54,56.61L301.62,40.9L340.7,91.06L379.79,45.13L418.87,85.62L457.95,158.14" style="vector-effect: none; fill: none; stroke: rgb(111, 207, 151); stroke-opacity: 1; stroke-width: 2px; opacity: 1;"/></g><g class="points"><path class="point" transform="translate(28.05,138.2)" d="M3.9,0L0,3.9L-3.9,0L0,-3.9Z" style="opacity: 1; stroke-width: 0px; fill: rgb(111, 207, 151); fill-opacity: 1;"/><path class="point" transform="translate(67.13,136.99)" d="M3.9,0L0,3.9L-3.9,0L0,-3.9Z" style="opacity: 1; stroke-width: 0px; fill: rgb(111, 207, 151); fill-opacity: 1;"/><path class="point" transform="translate(106.21,204.68)" d="M3.9,0L0,3.9L-3.9,0L0,-3.9Z" style="opacity: 1; stroke-width: 0px; fill: rgb(111, 207, 151); fill-opacity: 1;"/><path class="point" transform="translate(145.3,311.65)" d="M3.9,0L0,3.9L-3.9,0L0,-3.9Z" style="opacity: 1; stroke-width: 0px; fill: rgb(111, 207, 151); fill-opacity: 1;"/><path class="point" transform="translate(184.38,191.99)" d="M3.9,0L0,3.9L-3.9,0L0,-3.9Z" style="opacity: 1; stroke-width: 0px; fill: rgb(111, 207, 151); fill-opacity: 1;"/><path class="point" transform="translate(223.46,78.97)" d="M3.9,0L0,3.9L-3.9,0L0,-3.9Z" style="opacity: 1; stroke-width: 0px; fill: rgb(111, 207, 151); fill-opacity: 1;"/><path class="point" transform="translate(262.54,56.61)" d="M3.9,0L0,3.9L-3.9,0L0,-3.9Z" style="opacity: 1; stroke-width: 0px; fill: rgb(111, 207, 151); fill-opacity: 1;"/><path class="point" transform="translate(301.62,40.9)" d="M3.9,0L0,3.9L-3.9,0L0,-3.9Z" style="opacity: 1; stroke-width: 0px; fill: rgb(111, 207, 151); fill-opacity: 1;"/><path class="point" transform="translate(340.7,91.06)" d="M3.9,0L0,3.9L-3.9,0L0,-3.9Z" style="opacity: 1; stroke-width: 0px; fill: rgb(111, 207, 151); fill-opacity: 1;"/><path class="point" transform="translate(379.79,45.13)" d="M3.9,0L0,3.9L-3.9,0L0,-3.9Z" style="opacity: 1; stroke-width: 0px; fill: rgb(111, 207, 151); fill-opacity: 1;"/><path class="point" transform="translate(418.87,85.62)" d="M3.9,0L0,3.9L-3.9,0L0,-3.9Z" style="opacity: 1; stroke-width: 0px; fill: rgb(111, 207, 151); fill-opacity: 1;"/><path class="point" transform="translate(457.95,158.14)" d="M3.9,0L0,3.9L-3.9,0L0,-3.9Z" style="opacity: 1; stroke-width: 0px; fill: rgb(111, 207, 151); fill-opacity: 1;"/></g><g class="text"/></g><g class="trace scatter trace92191b" style="stroke-miterlimit: 2; opacity: 1;"><g class="fills"/><g class="errorbars"/><g class="lines"><path class="js-line" d="M28.05,77.16L67.13,152.1L106.21,144.24L145.3,92.87L184.38,53.59L223.46,117.65L262.54,121.28L301.62,36.06L340.7,74.14L379.79,51.78L418.87,44.52L457.95,175.67" style="vector-effect: none; fill: none; stroke: rgb(114, 39, 112); stroke-opacity: 1; stroke-width: 2px; opacity: 1;"/></g><g class="points"><path class="point" transform="translate(28.05,77.16)" d="M3,3H-3V-3H3Z" style="opacity: 1; stroke-width: 0px; fill: rgb(114, 39, 112); fill-opacity: 1;"/><path class="point" transform="translate(67.13,152.1)" d="M3,3H-3V-3H3Z" style="opacity: 1; stroke-width: 0px; fill: rgb(114, 39, 112); fill-opacity: 1;"/><path class="point" transform="translate(106.21,144.24)" d="M3,3H-3V-3H3Z" style="opacity: 1; stroke-width: 0px; fill: rgb(114, 39, 112); fill-opacity: 1;"/><path class="point" transform="translate(145.3,92.87)" d="M3,3H-3V-3H3Z" style="opacity: 1; stroke-width: 0px; fill: rgb(114, 39, 112); fill-opacity: 1;"/><path class="point" transform="translate(184.38,53.59)" d="M3,3H-3V-3H3Z" style="opacity: 1; stroke-width: 0px; fill: rgb(114, 39, 112); fill-opacity: 1;"/><path class="point" transform="translate(223.46,117.65)" d="M3,3H-3V-3H3Z" style="opacity: 1; stroke-width: 0px; fill: rgb(114, 39, 112); fill-opacity: 1;"/><path class="point" transform="translate(262.54,121.28)" d="M3,3H-3V-3H3Z" style="opacity: 1; stroke-width: 0px; fill: rgb(114, 39, 112); fill-opacity: 1;"/><path class="point" transform="translate(301.62,36.06)" d="M3,3H-3V-3H3Z" style="opacity: 1; stroke-width: 0px; fill: rgb(114, 39, 112); fill-opacity: 1;"/><path class="point" transform="translate(340.7,74.14)" d="M3,3H-3V-3H3Z" style="opacity: 1; stroke-width: 0px; fill: rgb(114, 39, 112); fill-opacity: 1;"/><path class="point" transform="translate(379.79,51.78)" d="M3,3H-3V-3H3Z" style="opacity: 1; stroke-width: 0px; fill: rgb(114, 39, 112); fill-opacity: 1;"/><path class="point" transform="translate(418.87,44.52)" d="M3,3H-3V-3H3Z" style="opacity: 1; stroke-width: 0px; fill: rgb(114, 39, 112); fill-opacity: 1;"/><path class="point" transform="translate(457.95,175.67)" d="M3,3H-3V-3H3Z" style="opacity: 1; stroke-width: 0px; fill: rgb(114, 39, 112); fill-opacity: 1;"/></g><g class="text"/></g><g class="trace scatter trace96a898" style="stroke-miterlimit: 2; opacity: 1;"><g class="fills"/><g class="errorbars"/><g class="lines"><path class="js-line" d="M28.05,146.06L67.13,141.83L106.21,121.88L145.3,144.85L184.38,86.83L223.46,135.78L262.54,122.49L301.62,40.29L340.7,122.49L379.79,65.07L418.87,94.69L457.95,177.48" style="vector-effect: none; fill: none; stroke: rgb(234, 95, 45); stroke-opacity: 1; stroke-width: 2px; opacity: 1;"/></g><g class="points"><path class="point" transform="translate(28.05,146.06)" d="M0,1.7l1.7,1.7l1.7,-1.7l-1.7,-1.7l1.7,-1.7l-1.7,-1.7l-1.7,1.7l-1.7,-1.7l-1.7,1.7l1.7,1.7l-1.7,1.7l1.7,1.7Z" style="opacity: 1; stroke-width: 0px; fill: rgb(234, 95, 45); fill-opacity: 1;"/><path class="point" transform="translate(67.13,141.83)" d="M0,1.7l1.7,1.7l1.7,-1.7l-1.7,-1.7l1.7,-1.7l-1.7,-1.7l-1.7,1.7l-1.7,-1.7l-1.7,1.7l1.7,1.7l-1.7,1.7l1.7,1.7Z" style="opacity: 1; stroke-width: 0px; fill: rgb(234, 95, 45); fill-opacity: 1;"/><path class="point" transform="translate(106.21,121.88)" d="M0,1.7l1.7,1.7l1.7,-1.7l-1.7,-1.7l1.7,-1.7l-1.7,-1.7l-1.7,1.7l-1.7,-1.7l-1.7,1.7l1.7,1.7l-1.7,1.7l1.7,1.7Z" style="opacity: 1; stroke-width: 0px; fill: rgb(234, 95, 45); fill-opacity: 1;"/><path class="point" transform="translate(145.3,144.85)" d="M0,1.7l1.7,1.7l1.7,-1.7l-1.7,-1.7l1.7,-1.7l-1.7,-1.7l-1.7,1.7l-1.7,-1.7l-1.7,1.7l1.7,1.7l-1.7,1.7l1.7,1.7Z" style="opacity: 1; stroke-width: 0px; fill: rgb(234, 95, 45); fill-opacity: 1;"/><path class="point" transform="translate(184.38,86.83)" d="M0,1.7l1.7,1.7l1.7,-1.7l-1.7,-1.7l1.7,-1.7l-1.7,-1.7l-1.7,1.7l-1.7,-1.7l-1.7,1.7l1.7,1.7l-1.7,1.7l1.7,1.7Z" style="opacity: 1; stroke-width: 0px; fill: rgb(234, 95, 45); fill-opacity: 1;"/><path class="point" transform="translate(223.46,135.78)" d="M0,1.7l1.7,1.7l1.7,-1.7l-1.7,-1.7l1.7,-1.7l-1.7,-1.7l-1.7,1.7l-1.7,-1.7l-1.7,1.7l1.7,1.7l-1.7,1.7l1.7,1.7Z" style="opacity: 1; stroke-width: 0px; fill: rgb(234, 95, 45); fill-opacity: 1;"/><path class="point" transform="translate(262.54,122.49)" d="M0,1.7l1.7,1.7l1.7,-1.7l-1.7,-1.7l1.7,-1.7l-1.7,-1.7l-1.7,1.7l-1.7,-1.7l-1.7,1.7l1.7,1.7l-1.7,1.7l1.7,1.7Z" style="opacity: 1; stroke-width: 0px; fill: rgb(234, 95, 45); fill-opacity: 1;"/><path class="point" transform="translate(301.62,40.29)" d="M0,1.7l1.7,1.7l1.7,-1.7l-1.7,-1.7l1.7,-1.7l-1.7,-1.7l-1.7,1.7l-1.7,-1.7l-1.7,1.7l1.7,1.7l-1.7,1.7l1.7,1.7Z" style="opacity: 1; stroke-width: 0px; fill: rgb(234, 95, 45); fill-opacity: 1;"/><path class="point" transform="translate(340.7,122.49)" d="M0,1.7l1.7,1.7l1.7,-1.7l-1.7,-1.7l1.7,-1.7l-1.7,-1.7l-1.7,1.7l-1.7,-1.7l-1.7,1.7l1.7,1.7l-1.7,1.7l1.7,1.7Z" style="opacity: 1; stroke-width: 0px; fill: rgb(234, 95, 45); fill-opacity: 1;"/><path class="point" transform="translate(379.79,65.07)" d="M0,1.7l1.7,1.7l1.7,-1.7l-1.7,-1.7l1.7,-1.7l-1.7,-1.7l-1.7,1.7l-1.7,-1.7l-1.7,1.7l1.7,1.7l-1.7,1.7l1.7,1.7Z" style="opacity: 1; stroke-width: 0px; fill: rgb(234, 95, 45); fill-opacity: 1;"/><path class="point" transform="translate(418.87,94.69)" d="M0,1.7l1.7,1.7l1.7,-1.7l-1.7,-1.7l1.7,-1.7l-1.7,-1.7l-1.7,1.7l-1.7,-1.7l-1.7,1.7l1.7,1.7l-1.7,1.7l1.7,1.7Z" style="opacity: 1; stroke-width: 0px; fill: rgb(234, 95, 45); fill-opacity: 1;"/><path class="point" transform="translate(457.95,177.48)" d="M0,1.7l1.7,1.7l1.7,-1.7l-1.7,-1.7l1.7,-1.7l-1.7,-1.7l-1.7,1.7l-1.7,-1.7l-1.7,1.7l1.7,1.7l-1.7,1.7l1.7,1.7Z" style="opacity: 1; stroke-width: 0px; fill: rgb(234, 95, 45); fill-opacity: 1;"/></g><g class="text"/></g><g class="trace scatter trace960613" style="stroke-miterlimit: 2; opacity: 1;"><g class="fills"/><g class="errorbars"/><g class="lines"><path class="js-line" d="M28.05,56.61L67.13,92.27L106.21,44.52L145.3,20.35L184.38,26.39L223.46,40.29L262.54,78.97L301.62,42.11L340.7,45.13L379.79,42.11L418.87,78.37L457.95,176.27" style="vector-effect: none; fill: none; stroke: rgb(111, 149, 255); stroke-opacity: 1; stroke-width: 2px; opacity: 1;"/></g><g class="points"><path class="point" transform="translate(28.05,56.61)" d="M3.6,1.2H1.2V3.6H-1.2V1.2H-3.6V-1.2H-1.2V-3.6H1.2V-1.2H3.6Z" style="opacity: 1; stroke-width: 0px; fill: rgb(111, 149, 255); fill-opacity: 1;"/><path class="point" transform="translate(67.13,92.27)" d="M3.6,1.2H1.2V3.6H-1.2V1.2H-3.6V-1.2H-1.2V-3.6H1.2V-1.2H3.6Z" style="opacity: 1; stroke-width: 0px; fill: rgb(111, 149, 255); fill-opacity: 1;"/><path class="point" transform="translate(106.21,44.52)" d="M3.6,1.2H1.2V3.6H-1.2V1.2H-3.6V-1.2H-1.2V-3.6H1.2V-1.2H3.6Z" style="opacity: 1; stroke-width: 0px; fill: rgb(111, 149, 255); fill-opacity: 1;"/><path class="point" transform="translate(145.3,20.35)" d="M3.6,1.2H1.2V3.6H-1.2V1.2H-3.6V-1.2H-1.2V-3.6H1.2V-1.2H3.6Z" style="opacity: 1; stroke-width: 0px; fill: rgb(111, 149, 255); fill-opacity: 1;"/><path class="point" transform="translate(184.38,26.39)" d="M3.6,1.2H1.2V3.6H-1.2V1.2H-3.6V-1.2H-1.2V-3.6H1.2V-1.2H3.6Z" style="opacity: 1; stroke-width: 0px; fill: rgb(111, 149, 255); fill-opacity: 1;"/><path class="point" transform="translate(223.46,40.29)" d="M3.6,1.2H1.2V3.6H-1.2V1.2H-3.6V-1.2H-1.2V-3.6H1.2V-1.2H3.6Z" style="opacity: 1; stroke-width: 0px; fill: rgb(111, 149, 255); fill-opacity: 1;"/><path class="point" transform="translate(262.54,78.97)" d="M3.6,1.2H1.2V3.6H-1.2V1.2H-3.6V-1.2H-1.2V-3.6H1.2V-1.2H3.6Z" style="opacity: 1; stroke-width: 0px; fill: rgb(111, 149, 255); fill-opacity: 1;"/><path class="point" transform="translate(301.62,42.11)" d="M3.6,1.2H1.2V3.6H-1.2V1.2H-3.6V-1.2H-1.2V-3.6H1.2V-1.2H3.6Z" style="opacity: 1; stroke-width: 0px; fill: rgb(111, 149, 255); fill-opacity: 1;"/><path class="point" transform="translate(340.7,45.13)" d="M3.6,1.2H1.2V3.6H-1.2V1.2H-3.6V-1.2H-1.2V-3.6H1.2V-1.2H3.6Z" style="opacity: 1; stroke-width: 0px; fill: rgb(111, 149, 255); fill-opacity: 1;"/><path class="point" transform="translate(379.79,42.11)" d="M3.6,1.2H1.2V3.6H-1.2V1.2H-3.6V-1.2H-1.2V-3.6H1.2V-1.2H3.6Z" style="opacity: 1; stroke-width: 0px; fill: rgb(111, 149, 255); fill-opacity: 1;"/><path class="point" transform="translate(418.87,78.37)" d="M3.6,1.2H1.2V3.6H-1.2V1.2H-3.6V-1.2H-1.2V-3.6H1.2V-1.2H3.6Z" style="opacity: 1; stroke-width: 0px; fill: rgb(111, 149, 255); fill-opacity: 1;"/><path class="point" transform="translate(457.95,176.27)" d="M3.6,1.2H1.2V3.6H-1.2V1.2H-3.6V-1.2H-1.2V-3.6H1.2V-1.2H3.6Z" style="opacity: 1; stroke-width: 0px; fill: rgb(111, 149, 255); fill-opacity: 1;"/></g><g class="text"/></g></g></g><g class="overplot"/><path class="xlines-above crisp" d="M0,0" style="fill: none;"/><path class="ylines-above crisp" d="M0,0" style="fill: none;"/><g class="overlines-above"/><g class="xaxislayer-above"><g class="xtick"><text text-anchor="middle" x="0" y="358" transform="translate(92.05,0)" style="font-family: 'Open Sans', verdana, arial, sans-serif; font-size: 15px; fill: rgb(42, 63, 95); fill-opacity: 1; white-space: pre; opacity: 1;">JAN</text></g><g class="xtick"><text text-anchor="middle" x="0" y="358" transform="translate(131.13,0)" style="font-family: 'Open Sans', verdana, arial, sans-serif; font-size: 15px; fill: rgb(42, 63, 95); fill-opacity: 1; white-space: pre; opacity: 1;">FEV</text></g><g class="xtick"><text text-anchor="middle" x="0" y="358" transform="translate(170.20999999999998,0)" style="font-family: 'Open Sans', verdana, arial, sans-serif; font-size: 15px; fill: rgb(42, 63, 95); fill-opacity: 1; white-space: pre; opacity: 1;">MAR</text></g><g class="xtick"><text text-anchor="middle" x="0" y="358" transform="translate(209.3,0)" style="font-family: 'Open Sans', verdana, arial, sans-serif; font-size: 15px; fill: rgb(42, 63, 95); fill-opacity: 1; white-space: pre; opacity: 1;">ABR</text></g><g class="xtick"><text text-anchor="middle" x="0" y="358" transform="translate(248.38,0)" style="font-family: 'Open Sans', verdana, arial, sans-serif; font-size: 15px; fill: rgb(42, 63, 95); fill-opacity: 1; white-space: pre; opacity: 1;">MAI</text></g><g class="xtick"><text text-anchor="middle" x="0" y="358" transform="translate(287.46000000000004,0)" style="font-family: 'Open Sans', verdana, arial, sans-serif; font-size: 15px; fill: rgb(42, 63, 95); fill-opacity: 1; white-space: pre; opacity: 1;">JUN</text></g><g class="xtick"><text text-anchor="middle" x="0" y="358" transform="translate(326.54,0)" style="font-family: 'Open Sans', verdana, arial, sans-serif; font-size: 15px; fill: rgb(42, 63, 95); fill-opacity: 1; white-space: pre; opacity: 1;">JUL</text></g><g class="xtick"><text text-anchor="middle" x="0" y="358" transform="translate(365.62,0)" style="font-family: 'Open Sans', verdana, arial, sans-serif; font-size: 15px; fill: rgb(42, 63, 95); fill-opacity: 1; white-space: pre; opacity: 1;">AGO</text></g><g class="xtick"><text text-anchor="middle" x="0" y="358" transform="translate(404.7,0)" style="font-family: 'Open Sans', verdana, arial, sans-serif; font-size: 15px; fill: rgb(42, 63, 95); fill-opacity: 1; white-space: pre; opacity: 1;">SET</text></g><g class="xtick"><text text-anchor="middle" x="0" y="358" transform="translate(443.79,0)" style="font-family: 'Open Sans', verdana, arial, sans-serif; font-size: 15px; fill: rgb(42, 63, 95); fill-opacity: 1; white-space: pre; opacity: 1;">OUT</text></g><g class="xtick"><text text-anchor="middle" x="0" y="358" transform="translate(482.87,0)" style="font-family: 'Open Sans', verdana, arial, sans-serif; font-size: 15px; fill: rgb(42, 63, 95); fill-opacity: 1; white-space: pre; opacity: 1;">NOV</text></g><g class="xtick"><text text-anchor="middle" x="0" y="358" transform="translate(521.95,0)" style="font-family: 'Open Sans', verdana, arial, sans-serif; font-size: 15px; fill: rgb(42, 63, 95); fill-opacity: 1; white-space: pre; opacity: 1;">DEZ</text></g></g><g class="yaxislayer-above"><g class="ytick"><text text-anchor="end" x="63" y="5.25" transform="translate(0,288.41)" style="font-family: 'Open Sans', verdana, arial, sans-serif; font-size: 15px; fill: rgb(42, 63, 95); fill-opacity: 1; white-space: pre; opacity: 1;">500</text></g><g class="ytick"><text text-anchor="end" x="63" y="5.25" style="font-family: 'Open Sans', verdana, arial, sans-serif; font-size: 15px; fill: rgb(42, 63, 95); fill-opacity: 1; white-space: pre; opacity: 1;" transform="translate(0,227.97)">600</text></g><g class="ytick"><text text-anchor="end" x="63" y="5.25" style="font-family: 'Open Sans', verdana, arial, sans-serif; font-size: 15px; fill: rgb(42, 63, 95); fill-opacity: 1; white-space: pre; opacity: 1;" transform="translate(0,167.54)">700</text></g><g class="ytick"><text text-anchor="end" x="63" y="5.25" style="font-family: 'Open Sans', verdana, arial, sans-serif; font-size: 15px; fill: rgb(42, 63, 95); fill-opacity: 1; white-space: pre; opacity: 1;" transform="translate(0,107.1)">800</text></g><g class="ytick"><text text-anchor="end" x="63" y="5.25" style="font-family: 'Open Sans', verdana, arial, sans-serif; font-size: 15px; fill: rgb(42, 63, 95); fill-opacity: 1; white-space: pre; opacity: 1;" transform="translate(0,46.67)">900</text></g></g><g class="overaxes-above"/></g></g><g class="polarlayer"/><g class="smithlayer"/><g class="ternarylayer"/><g class="geolayer"/><g class="funnelarealayer"/><g class="pielayer"/><g class="iciclelayer"/><g class="treemaplayer"/><g class="sunburstlayer"/><g class="glimages"/><defs id="topdefs-3dae2f"><g class="clips"/><clipPath id="legend3dae2f"><rect width="80" height="146" x="0" y="0"/></clipPath></defs><g class="layer-above"><g class="imagelayer"/><g class="shapelayer"/></g><g class="infolayer"><g class="legend" pointer-events="all" transform="translate(559.72,10)"><rect class="bg" shape-rendering="crispEdges" width="80" height="146" x="0" y="0" style="stroke: rgb(68, 68, 68); stroke-opacity: 1; fill: rgb(255, 245, 238); fill-opacity: 1; stroke-width: 0px;"/><g class="scrollbox" transform="" clip-path="url(#legend3dae2f)"><text class="legendtitletext" text-anchor="start" x="2" y="23.400000000000002" style="font-family: 'Open Sans', verdana, arial, sans-serif; font-size: 18px; fill: rgb(42, 63, 95); fill-opacity: 1; white-space: pre;">Anos</text><g class="groups" transform=""><g class="traces" transform="translate(0,39.650000000000006)" style="opacity: 1;"><text class="legendtext" text-anchor="start" x="40" y="5.85" style="font-family: 'Open Sans', verdana, arial, sans-serif; font-size: 15px; fill: rgb(42, 63, 95); fill-opacity: 1; white-space: pre;">2019</text><g class="layers" style="opacity: 1;"><g class="legendfill"/><g class="legendlines"><path class="js-line" d="M5,0h30" style="fill: none; stroke: rgb(156, 15, 72); stroke-opacity: 1; stroke-width: 2px;"/></g><g class="legendsymbols"><g class="legendpoints"><path class="scatterpts" transform="translate(20,0)" d="M3,0A3,3 0 1,1 0,-3A3,3 0 0,1 3,0Z" style="opacity: 1; stroke-width: 0px; fill: rgb(156, 15, 72); fill-opacity: 1;"/></g></g></g><rect class="legendtoggle" x="0" y="-11.25" width="74.734375" height="22.5" style="fill: rgb(0, 0, 0); fill-opacity: 0;"/></g></g><g class="groups" transform=""><g class="traces" transform="translate(0,62.150000000000006)" style="opacity: 1;"><text class="legendtext" text-anchor="start" x="40" y="5.85" style="font-family: 'Open Sans', verdana, arial, sans-serif; font-size: 15px; fill: rgb(42, 63, 95); fill-opacity: 1; white-space: pre;">2020</text><g class="layers" style="opacity: 1;"><g class="legendfill"/><g class="legendlines"><path class="js-line" d="M5,0h30" style="fill: none; stroke: rgb(111, 207, 151); stroke-opacity: 1; stroke-width: 2px;"/></g><g class="legendsymbols"><g class="legendpoints"><path class="scatterpts" transform="translate(20,0)" d="M3.9,0L0,3.9L-3.9,0L0,-3.9Z" style="opacity: 1; stroke-width: 0px; fill: rgb(111, 207, 151); fill-opacity: 1;"/></g></g></g><rect class="legendtoggle" x="0" y="-11.25" width="74.734375" height="22.5" style="fill: rgb(0, 0, 0); fill-opacity: 0;"/></g></g><g class="groups" transform=""><g class="traces" transform="translate(0,84.65)" style="opacity: 1;"><text class="legendtext" text-anchor="start" x="40" y="5.85" style="font-family: 'Open Sans', verdana, arial, sans-serif; font-size: 15px; fill: rgb(42, 63, 95); fill-opacity: 1; white-space: pre;">2021</text><g class="layers" style="opacity: 1;"><g class="legendfill"/><g class="legendlines"><path class="js-line" d="M5,0h30" style="fill: none; stroke: rgb(114, 39, 112); stroke-opacity: 1; stroke-width: 2px;"/></g><g class="legendsymbols"><g class="legendpoints"><path class="scatterpts" transform="translate(20,0)" d="M3,3H-3V-3H3Z" style="opacity: 1; stroke-width: 0px; fill: rgb(114, 39, 112); fill-opacity: 1;"/></g></g></g><rect class="legendtoggle" x="0" y="-11.25" width="74.734375" height="22.5" style="fill: rgb(0, 0, 0); fill-opacity: 0;"/></g></g><g class="groups" transform=""><g class="traces" transform="translate(0,107.15)" style="opacity: 1;"><text class="legendtext" text-anchor="start" x="40" y="5.85" style="font-family: 'Open Sans', verdana, arial, sans-serif; font-size: 15px; fill: rgb(42, 63, 95); fill-opacity: 1; white-space: pre;">2022</text><g class="layers" style="opacity: 1;"><g class="legendfill"/><g class="legendlines"><path class="js-line" d="M5,0h30" style="fill: none; stroke: rgb(234, 95, 45); stroke-opacity: 1; stroke-width: 2px;"/></g><g class="legendsymbols"><g class="legendpoints"><path class="scatterpts" transform="translate(20,0)" d="M0,1.7l1.7,1.7l1.7,-1.7l-1.7,-1.7l1.7,-1.7l-1.7,-1.7l-1.7,1.7l-1.7,-1.7l-1.7,1.7l1.7,1.7l-1.7,1.7l1.7,1.7Z" style="opacity: 1; stroke-width: 0px; fill: rgb(234, 95, 45); fill-opacity: 1;"/></g></g></g><rect class="legendtoggle" x="0" y="-11.25" width="74.734375" height="22.5" style="fill: rgb(0, 0, 0); fill-opacity: 0;"/></g></g><g class="groups" transform=""><g class="traces" transform="translate(0,129.65)" style="opacity: 1;"><text class="legendtext" text-anchor="start" x="40" y="5.85" style="font-family: 'Open Sans', verdana, arial, sans-serif; font-size: 15px; fill: rgb(42, 63, 95); fill-opacity: 1; white-space: pre;">2023</text><g class="layers" style="opacity: 1;"><g class="legendfill"/><g class="legendlines"><path class="js-line" d="M5,0h30" style="fill: none; stroke: rgb(111, 149, 255); stroke-opacity: 1; stroke-width: 2px;"/></g><g class="legendsymbols"><g class="legendpoints"><path class="scatterpts" transform="translate(20,0)" d="M3.6,1.2H1.2V3.6H-1.2V1.2H-3.6V-1.2H-1.2V-3.6H1.2V-1.2H3.6Z" style="opacity: 1; stroke-width: 0px; fill: rgb(111, 149, 255); fill-opacity: 1;"/></g></g></g><rect class="legendtoggle" x="0" y="-11.25" width="74.734375" height="22.5" style="fill: rgb(0, 0, 0); fill-opacity: 0;"/></g></g></g><rect class="scrollbar" rx="20" ry="3" width="0" height="0" x="0" y="0" style="fill: rgb(128, 139, 164); fill-opacity: 1;"/></g><g class="g-gtitle"/><g class="g-xtitle"><text class="xtitle" x="307" y="389.1" text-anchor="middle" style="font-family: 'Open Sans', verdana, arial, sans-serif; font-size: 18px; fill: rgb(42, 63, 95); opacity: 1; font-weight: normal; white-space: pre;">Meses</text></g><g class="g-ytitle"/></g></svg>