<svg class="main-svg" xmlns="http://www.w3.org/2000/svg" xmlns:xlink="http://www.w3.org/1999/xlink" width="650" height="400" style="" viewBox="0 0 650 400"><rect x="0" y="0" width="650" height="400" style="fill: rgb(255, 255, 255); fill-opacity: 1;"/><defs id="defs-4f3204"><g class="clips"><clipPath id="clip4f3204xyplot" class="plotclip"><rect width="464" height="285"/></clipPath><clipPath class="axesclip" id="clip4f3204x"><rect x="56" y="0" width="464" height="400"/></clipPath><clipPath class="axesclip" id="clip4f3204y"><rect x="0" y="20" width="650" height="285"/></clipPath><clipPath class="axesclip" id="clip4f3204xy"><rect x="56" y="20" width="464" height="285"/></clipPath></g><g class="gradients"/><g class="patterns"/></defs><g class="bglayer"><rect class="bg" x="56" y="20" width="464" height="285" style="fill: rgb(255, 245, 238); fill-opacity: 1; stroke-width: 0;"/></g><g class="layer-below"><g class="imagelayer"/><g class="shapelayer"/></g><g class="cartesianlayer"><g class="subplot xy"><g class="layer-subplot"><g class="shapelayer"/><g class="imagelayer"/></g><g class="minor-gridlayer"><g class="x"/><g class="y"/></g><g class="gridlayer"><g class="x"><path class="xgrid crisp" transform="translate(79.59,0)" d="M0,20v285" style="stroke: rgb(255, 255, 255); stroke-opacity: 1; stroke-width: 1px;"/><path class="xgrid crisp" transform="translate(103.19,0)" d="M0,20v285" style="stroke: rgb(255, 255, 255); stroke-opacity: 1; stroke-width: 1px;"/><path class="xgrid crisp" transform="translate(126.78,0)" d="M0,20v285" style="stroke: rgb(255, 255, 255); stroke-opacity: 1; stroke-width: 1px;"/><path class="xgrid crisp" transform="translate(150.37,0)" d="M0,20v285" style="stroke: rgb(255, 255, 255); stroke-opacity: 1; stroke-width: 1px;"/><path class="xgrid crisp" transform="translate(173.97,0)" d="M0,20v285" style="stroke: rgb(255, 255, 255); stroke-opacity: 1; stroke-width: 1px;"/><path class="xgrid crisp" transform="translate(197.56,0)" d="M0,20v285" style="stroke: rgb(255, 255, 255); stroke-opacity: 1; stroke-width: 1px;"/><path class="xgrid crisp" transform="translate(221.15,0)" d="M0,20v285" style="stroke: rgb(255, 255, 255); stroke-opacity: 1; stroke-width: 1px;"/><path class="xgrid crisp" transform="translate(244.75,0)" d="M0,20v285" style="stroke: rgb(255, 255, 255); stroke-opacity: 1; stroke-width: 1px;"/><path class="xgrid crisp" transform="translate(268.34000000000003,0)" d="M0,20v285" style="stroke: rgb(255, 255, 255); stroke-opacity: 1; stroke-width: 1px;"/><path class="xgrid crisp" transform="translate(291.93,0)" d="M0,20v285" style="stroke: rgb(255, 255, 255); stroke-opacity: 1; stroke-width: 1px;"/><path class="xgrid crisp" transform="translate(315.53,0)" d="M0,20v285" style="stroke: rgb(255, 255, 255); stroke-opacity: 1; stroke-width: 1px;"/><path class="xgrid crisp" transform="translate(339.12,0)" d="M0,20v285" style="stroke: rgb(255, 255, 255); stroke-opacity: 1; stroke-width: 1px;"/><path class="xgrid crisp" transform="translate(362.71,0)" d="M0,20v285" style="stroke: rgb(255, 255, 255); stroke-opacity: 1; stroke-width: 1px;"/><path class="xgrid crisp" transform="translate(386.31,0)" d="M0,20v285" style="stroke: rgb(255, 255, 255); stroke-opacity: 1; stroke-width: 1px;"/><path class="xgrid crisp" transform="translate(409.9,0)" d="M0,20v285" style="stroke: rgb(255, 255, 255); stroke-opacity: 1; stroke-width: 1px;"/><path class="xgrid crisp" transform="translate(433.49,0)" d="M0,20v285" style="stroke: rgb(255, 255, 255); stroke-opacity: 1; stroke-width: 1px;"/><path class="xgrid crisp" transform="translate(457.08,0)" d="M0,20v285" style="stroke: rgb(255, 255, 255); stroke-opacity: 1; stroke-width: 1px;"/><path class="xgrid crisp" transform="translate(480.68,0)" d="M0,20v285" style="stroke: rgb(255, 255, 255); stroke-opacity: 1; stroke-width: 1px;"/><path class="xgrid crisp" transform="translate(504.27,0)" d="M0,20v285" style="stroke: rgb(255, 255, 255); stroke-opacity: 1; stroke-width: 1px;"/></g><g class="y"><path class="ygrid crisp" transform="translate(0,249.53)" d="M56,0h464" style="stroke: rgb(255, 255, 255); stroke-opacity: 1; stroke-width: 1px;"/><path class="ygrid crisp" transform="translate(0,203.72)" d="M56,0h464" style="stroke: rgb(255, 255, 255); stroke-opacity: 1; stroke-width: 1px;"/><path class="ygrid crisp" transform="translate(0,157.92)" d="M56,0h464" style="stroke: rgb(255, 255, 255); stroke-opacity: 1; stroke-width: 1px;"/><path class="ygrid crisp" transform="translate(0,112.12)" d="M56,0h464" style="stroke: rgb(255, 255, 255); stroke-opacity: 1; stroke-width: 1px;"/><path class="ygrid crisp" transform="translate(0,66.31)" d="M56,0h464" style="stroke: rgb(255, 255, 255); stroke-opacity: 1; stroke-width: 1px;"/></g></g><g class="zerolinelayer"><path class="yzl zl crisp" transform="translate(0,295.33)" d="M56,0h464" style="stroke: rgb(255, 255, 255); stroke-opacity: 1; stroke-width: 2px;"/></g><path class="xlines-below"/><path class="ylines-below"/><g class="overlines-below"/><g class="xaxislayer-below"/><g class="yaxislayer-below"/><g class="overaxes-below"/><g class="plot" transform="translate(56,20)" clip-path="url(#clip4f3204xyplot)"><g class="scatterlayer mlayer"><g class="trace scatter tracea72d27" style="stroke-miterlimit: 2; opacity: 1;"><g class="fills"/><g class="errorbars"/><g class="lines"><path class="js-line" d="M0,215.79L7.86,224.95L15.73,202.04L23.59,257.01L31.46,188.3L39.32,229.53L47.19,206.62L55.05,192.88L62.92,151.66L70.78,142.5L78.64,215.79L86.51,183.72L94.37,192.88L102.24,188.3L110.1,197.46L117.97,270.75L125.83,247.85L133.69,179.14L141.56,197.46L149.42,165.4L157.29,160.82L165.15,124.18L173.02,124.18L180.88,202.04L188.75,151.66L196.61,183.72L204.47,220.37L212.34,124.18L220.2,110.44L228.07,202.04L235.93,192.88L251.66,174.56L259.53,110.44L267.39,151.66L275.25,174.56L283.12,192.88L290.98,160.82L298.85,156.24L306.71,169.98L314.58,183.72L322.44,192.88L330.31,215.79L338.17,137.92L346.03,105.86L353.9,128.76L361.76,165.4L369.63,165.4L377.49,133.34L385.36,119.6L393.22,115.02L401.08,197.46L408.95,110.44L416.81,78.38L424.68,115.02L432.54,133.34L440.41,87.54L448.27,92.12L456.14,211.21L464,147.08" style="vector-effect: none; fill: none; stroke: rgb(156, 15, 72); stroke-opacity: 1; stroke-width: 2px; opacity: 1;"/></g><g class="points"/><g class="text"/></g><g class="trace scatter trace62201e" style="stroke-miterlimit: 2; opacity: 1;"><g class="fills"/><g class="errorbars"/><g class="lines"><path class="js-line" d="M0,169.98L7.86,197.46L15.73,128.76L23.59,147.08L31.46,147.08L39.32,115.02L47.19,119.6L55.05,160.82L62.92,147.08L70.78,165.4L78.64,165.4L86.51,179.14L94.37,142.5L102.24,133.34L110.1,179.14L117.97,252.43L125.83,192.88L133.69,179.14L141.56,160.82L149.42,142.5L157.29,115.02L165.15,142.5L173.02,133.34L180.88,183.72L188.75,133.34L196.61,151.66L204.47,174.56L212.34,133.34L220.2,119.6L228.07,137.92L235.93,115.02L243.8,78.38L251.66,110.44L259.53,124.18L267.39,60.05L275.25,82.96L283.12,147.08L290.98,160.82L298.85,147.08L306.71,151.66L314.58,119.6L322.44,101.28L330.31,92.12L338.17,14.25L346.03,160.82L353.9,110.44L361.76,69.21L369.63,128.76L377.49,142.5L385.36,96.7L393.22,64.63L401.08,41.73L408.95,55.47L416.81,41.73L424.68,124.18L432.54,119.6L440.41,14.25L448.27,128.76L456.14,124.18L464,165.4" style="vector-effect: none; fill: none; stroke: rgb(111, 207, 151); stroke-opacity: 1; stroke-width: 2px; opacity: 1;"/></g><g class="points"/><g class="text"/></g><g class="trace scatter traceaf5b9c" style="stroke-miterlimit: 2; opacity: 1;"><g class="fills"/><g class="errorbars"/><g class="lines"><path class="js-line" d="M7.86,270.75L15.73,266.17L23.59,243.27L31.46,211.21L39.32,243.27L47.19,266.17L55.05,257.01L62.92,257.01L70.78,238.69L78.64,270.75L86.51,261.59L94.37,252.43L102.24,270.75L110.1,261.59L117.97,257.01L125.83,270.75L133.69,224.95L141.56,215.79L149.42,197.46L157.29,215.79L165.15,215.79L173.02,215.79L180.88,206.62L188.75,257.01L196.61,261.59L204.47,261.59L212.34,266.17L220.2,247.85L228.07,224.95L235.93,215.79L243.8,110.44L251.66,147.08L259.53,133.34L267.39,128.76L275.25,192.88L283.12,165.4L290.98,156.24L298.85,147.08L306.71,188.3L314.58,101.28L322.44,151.66L330.31,183.72L338.17,110.44L346.03,137.92L353.9,78.38L361.76,60.05L369.63,169.98L377.49,124.18L385.36,82.96L393.22,46.31L401.08,73.79L408.95,69.21L416.81,82.96L424.68,87.54L432.54,137.92L440.41,183.72L448.27,165.4L456.14,151.66L464,202.04" style="vector-effect: none; fill: none; stroke: rgb(114, 39, 112); stroke-opacity: 1; stroke-width: 2px; opacity: 1;"/></g><g class="points"/><g class="text"/></g></g></g><g class="overplot"/><path class="xlines-above crisp" d="M0,0" style="fill: none;"/><path class="ylines-above crisp" d="M0,0" style="fill: none;"/><g class="overlines-above"/><g class="xaxislayer-above"><g class="xtick"><text text-anchor="start" x="0" y="321" transform="translate(56,0) rotate(90,0,313.5)" style="font-family: 'Open Sans', verdana, arial, sans-serif; font-size: 15px; fill: rgb(42, 63, 95); fill-opacity: 1; white-space: pre; opacity: 1;">Jan/19</text></g><g class="xtick"><text text-anchor="start" x="0" y="321" transform="translate(79.59,0) rotate(90,0,313.5)" style="font-family: 'Open Sans', verdana, arial, sans-serif; font-size: 15px; fill: rgb(42, 63, 95); fill-opacity: 1; white-space: pre; opacity: 1;">Abr/19</text></g><g class="xtick"><text text-anchor="start" x="0" y="321" transform="translate(103.19,0) rotate(90,0,313.5)" style="font-family: 'Open Sans', verdana, arial, sans-serif; font-size: 15px; fill: rgb(42, 63, 95); fill-opacity: 1; white-space: pre; opacity: 1;">Jul/19</text></g><g class="xtick"><text text-anchor="start" x="0" y="321" transform="translate(126.78,0) rotate(90,0,313.5)" style="font-family: 'Open Sans', verdana, arial, sans-serif; font-size: 15px; fill: rgb(42, 63, 95); fill-opacity: 1; white-space: pre; opacity: 1;">Out/19</text></g><g class="xtick"><text text-anchor="start" x="0" y="321" transform="translate(150.37,0) rotate(90,0,313.5)" style="font-family: 'Open Sans', verdana, arial, sans-serif; font-size: 15px; fill: rgb(42, 63, 95); fill-opacity: 1; white-space: pre; opacity: 1;">Jan/20</text></g><g class="xtick"><text text-anchor="start" x="0" y="321" transform="translate(173.97,0) rotate(90,0,313.5)" style="font-family: 'Open Sans', verdana, arial, sans-serif; font-size: 15px; fill: rgb(42, 63, 95); fill-opacity: 1; white-space: pre; opacity: 1;">Abr/20</text></g><g class="xtick"><text text-anchor="start" x="0" y="321" transform="translate(197.56,0) rotate(90,0,313.5)" style="font-family: 'Open Sans', verdana, arial, sans-serif; font-size: 15px; fill: rgb(42, 63, 95); fill-opacity: 1; white-space: pre; opacity: 1;">Jul/20</text></g><g class="xtick"><text text-anchor="start" x="0" y="321" transform="translate(221.15,0) rotate(90,0,313.5)" style="font-family: 'Open Sans', verdana, arial, sans-serif; font-size: 15px; fill: rgb(42, 63, 95); fill-opacity: 1; white-space: pre; opacity: 1;">Out/20</text></g><g class="xtick"><text text-anchor="start" x="0" y="321" transform="translate(244.75,0) rotate(90,0,313.5)" style="font-family: 'Open Sans', verdana, arial, sans-serif; font-size: 15px; fill: rgb(42, 63, 95); fill-opacity: 1; white-space: pre; opacity: 1;">Jan/21</text></g><g class="xtick"><text text-anchor="start" x="0" y="321" transform="translate(268.34000000000003,0) rotate(90,0,313.5)" style="font-family: 'Open Sans', verdana, arial, sans-serif; font-size: 15px; fill: rgb(42, 63, 95); fill-opacity: 1; white-space: pre; opacity: 1;">Abr/21</text></g><g class="xtick"><text text-anchor="start" x="0" y="321" transform="translate(291.93,0) rotate(90,0,313.5)" style="font-family: 'Open Sans', verdana, arial, sans-serif; font-size: 15px; fill: rgb(42, 63, 95); fill-opacity: 1; white-space: pre; opacity: 1;">Jul/21</text></g><g class="xtick"><text text-anchor="start" x="0" y="321" transform="translate(315.53,0) rotate(90,0,313.5)" style="font-family: 'Open Sans', verdana, arial, sans-serif; font-size: 15px; fill: rgb(42, 63, 95); fill-opacity: 1; white-space: pre; opacity: 1;">Out/21</text></g><g class="xtick"><text text-anchor="start" x="0" y="321" transform="translate(339.12,0) rotate(90,0,313.5)" style="font-family: 'Open Sans', verdana, arial, sans-serif; font-size: 15px; fill: rgb(42, 63, 95); fill-opacity: 1; white-space: pre; opacity: 1;">Jan/22</text></g><g class="xtick"><text text-anchor="start" x="0" y="321" transform="translate(362.71,0) rotate(90,0,313.5)" style="font-family: 'Open Sans', verdana, arial, sans-serif; font-size: 15px; fill: rgb(42, 63, 95); fill-opacity: 1; white-space: pre; opacity: 1;">Abr/22</text></g><g class="xtick"><text text-anchor="start" x="0" y="321" transform="translate(386.31,0) rotate(90,0,313.5)" style="font-family: 'Open Sans', verdana, arial, sans-serif; font-size: 15px; fill: rgb(42, 63, 95); fill-opacity: 1; white-space: pre; opacity: 1;">Jul/22</text></g><g class="xtick"><text text-anchor="start" x="0" y="321" transform="translate(409.9,0) rotate(90,0,313.5)" style="font-family: 'Open Sans', verdana, arial, sans-serif; font-size: 15px; fill: rgb(42, 63, 95); fill-opacity: 1; white-space: pre; opacity: 1;">Out/22</text></g><g class="xtick"><text text-anchor="start" x="0" y="321" transform="translate(433.49,0) rotate(90,0,313.5)" style="font-family: 'Open Sans', verdana, arial, sans-serif; font-size: 15px; fill: rgb(42, 63, 95); fill-opacity: 1; white-space: pre; opacity: 1;">Jan/23</text></g><g class="xtick"><text text-anchor="start" x="0" y="321" transform="translate(457.08,0) rotate(90,0,313.5)" style="font-family: 'Open Sans', verdana, arial, sans-serif; font-size: 15px; fill: rgb(42, 63, 95); fill-opacity: 1; white-space: pre; opacity: 1;">Abr/23</text></g><g class="xtick"><text text-anchor="start" x="0" y="321" transform="translate(480.68,0) rotate(90,0,313.5)" style="font-family: 'Open Sans', verdana, arial, sans-serif; font-size: 15px; fill: rgb(42, 63, 95); fill-opacity: 1; white-space: pre; opacity: 1;">Jul/23</text></g><g class="xtick"><text text-anchor="start" x="0" y="321" transform="translate(504.27,0) rotate(90,0,313.5)" style="font-family: 'Open Sans', verdana, arial, sans-serif; font-size: 15px; fill: rgb(42, 63, 95); fill-opacity: 1; white-space: pre; opacity: 1;">Out/23</text></g></g><g class="yaxislayer-above"><g class="ytick"><text text-anchor="end" x="55" y="5.25" transform="translate(0,295.33)" style="font-family: 'Open Sans', verdana, arial, sans-serif; font-size: 15px; fill: rgb(42, 63, 95); fill-opacity: 1; white-space: pre; opacity: 1;">0</text></g><g class="ytick"><text text-anchor="end" x="55" y="5.25" style="font-family: 'Open Sans', verdana, arial, sans-serif; font-size: 15px; fill: rgb(42, 63, 95); fill-opacity: 1; white-space: pre; opacity: 1;" transform="translate(0,249.53)">10</text></g><g class="ytick"><text text-anchor="end" x="55" y="5.25" style="font-family: 'Open Sans', verdana, arial, sans-serif; font-size: 15px; fill: rgb(42, 63, 95); fill-opacity: 1; white-space: pre; opacity: 1;" transform="translate(0,203.72)">20</text></g><g class="ytick"><text text-anchor="end" x="55" y="5.25" style="font-family: 'Open Sans', verdana, arial, sans-serif; font-size: 15px; fill: rgb(42, 63, 95); fill-opacity: 1; white-space: pre; opacity: 1;" transform="translate(0,157.92)">30</text></g><g class="ytick"><text text-anchor="end" x="55" y="5.25" style="font-family: 'Open Sans', verdana, arial, sans-serif; font-size: 15px; fill: rgb(42, 63, 95); fill-opacity: 1; white-space: pre; opacity: 1;" transform="translate(0,112.12)">40</text></g><g class="ytick"><text text-anchor="end" x="55" y="5.25" style="font-family: 'Open Sans', verdana, arial, sans-serif; font-size: 15px; fill: rgb(42, 63, 95); fill-opacity: 1; white-space: pre; opacity: 1;" transform="translate(0,66.31)">50</text></g><g class="ytick"><text text-anchor="end" x="55" y="5.25" style="font-family: 'Open Sans', verdana, arial, sans-serif; font-size: 15px; fill: rgb(42, 63, 95); fill-opacity: 1; white-space: pre; opacity: 1;" transform="translate(0,20.51)">60</text></g></g><g class="overaxes-above"/></g></g><g class="polarlayer"/><g class="smithlayer"/><g class="ternarylayer"/><g class="geolayer"/><g class="funnelarealayer"/><g class="pielayer"/><g class="iciclelayer"/><g class="treemaplayer"/><g class="sunburstlayer"/><g class="glimages"/><defs id="topdefs-4f3204"><g class="clips"/><clipPath id="legend4f3204"><rect width="111" height="101" x="0" y="0"/></clipPath></defs><g class="layer-above"><g class="imagelayer"/><g class="shapelayer"/></g><g class="infolayer"><g class="legend" pointer-events="all" transform="translate(529.28,20)"><rect class="bg" shape-rendering="crispEdges" width="111" height="101" x="0" y="0" style="stroke: rgb(68, 68, 68); stroke-opacity: 1; fill: rgb(255, 245, 238); fill-opacity: 1; stroke-width: 0px;"/><g class="scrollbox" transform="" clip-path="url(#legend4f3204)"><text class="legendtitletext" text-anchor="start" x="2" y="23.400000000000002" style="font-family: 'Open Sans', verdana, arial, sans-serif; font-size: 18px; fill: rgb(42, 63, 95); fill-opacity: 1; white-space: pre;">Crimes</text><g class="groups" transform=""><g class="traces" transform="translate(0,39.650000000000006)" style="opacity: 1;"><text class="legendtext" text-anchor="start" x="40" y="5.85" style="font-family: 'Open Sans', verdana, arial, sans-serif; font-size: 15px; fill: rgb(42, 63, 95); fill-opacity: 1; white-space: pre;">Imp. sex.</text><g class="layers" style="opacity: 1;"><g class="legendfill"/><g class="legendlines"><path class="js-line" d="M5,0h30" style="fill: none; stroke: rgb(156, 15, 72); stroke-opacity: 1; stroke-width: 2px;"/></g><g class="legendsymbols"><g class="legendpoints"/></g></g><rect class="legendtoggle" x="0" y="-11.25" width="105.75" height="22.5" style="fill: rgb(0, 0, 0); fill-opacity: 0;"/></g></g><g class="groups" transform=""><g class="traces" transform="translate(0,62.150000000000006)" style="opacity: 1;"><text class="legendtext" text-anchor="start" x="40" y="5.85" style="font-family: 'Open Sans', verdana, arial, sans-serif; font-size: 15px; fill: rgb(42, 63, 95); fill-opacity: 1; white-space: pre;">Est. vul.</text><g class="layers" style="opacity: 1;"><g class="legendfill"/><g class="legendlines"><path class="js-line" d="M5,0h30" style="fill: none; stroke: rgb(111, 207, 151); stroke-opacity: 1; stroke-width: 2px;"/></g><g class="legendsymbols"><g class="legendpoints"/></g></g><rect class="legendtoggle" x="0" y="-11.25" width="105.75" height="22.5" style="fill: rgb(0, 0, 0); fill-opacity: 0;"/></g></g><g class="groups" transform=""><g class="traces" transform="translate(0,84.65)" style="opacity: 1;"><text class="legendtext" text-anchor="start" x="40" y="5.85" style="font-family: 'Open Sans', verdana, arial, sans-serif; font-size: 15px; fill: rgb(42, 63, 95); fill-opacity: 1; white-space: pre;">Viol. psic.</text><g class="layers" style="opacity: 1;"><g class="legendfill"/><g class="legendlines"><path class="js-line" d="M5,0h30" style="fill: none; stroke: rgb(114, 39, 112); stroke-opacity: 1; stroke-width: 2px;"/></g><g class="legendsymbols"><g class="legendpoints"/></g></g><rect class="legendtoggle" x="0" y="-11.25" width="105.75" height="22.5" style="fill: rgb(0, 0, 0); fill-opacity: 0;"/></g></g></g><rect class="scrollbar" rx="20" ry="3" width="0" height="0" x="0" y="0" style="fill: rgb(128, 139, 164); fill-opacity: 1;"/></g><g class="g-gtitle"/><g class="g-xtitle"><text class="xtitle" x="288" y="389.88125" text-anchor="middle" style="font-family: 'Open Sans', verdana, arial, sans-serif; font-size: 18px; fill: rgb(42, 63, 95); opacity: 1; font-weight: normal; white-space: pre;">Mês/Ano</text></g><g class="g-ytitle"/></g></svg>