<svg class="main-svg" xmlns="http://www.w3.org/2000/svg" xmlns:xlink="http://www.w3.org/1999/xlink" width="650" height="400" style="" viewBox="0 0 650 400"><rect x="0" y="0" width="650" height="400" style="fill: rgb(255, 255, 255); fill-opacity: 1;"/><defs id="defs-e81c7f"><g class="clips"><clipPath id="clipe81c7fxyplot" class="plotclip"><rect width="455" height="295"/></clipPath><clipPath class="axesclip" id="clipe81c7fx"><rect x="64" y="0" width="455" height="400"/></clipPath><clipPath class="axesclip" id="clipe81c7fy"><rect x="0" y="10" width="650" height="295"/></clipPath><clipPath class="axesclip" id="clipe81c7fxy"><rect x="64" y="10" width="455" height="295"/></clipPath></g><g class="gradients"/><g class="patterns"/></defs><g class="bglayer"><rect class="bg" x="64" y="10" width="455" height="295" style="fill: rgb(255, 245, 238); fill-opacity: 1; stroke-width: 0;"/></g><g class="layer-below"><g class="imagelayer"/><g class="shapelayer"/></g><g class="cartesianlayer"><g class="subplot xy"><g class="layer-subplot"><g class="shapelayer"/><g class="imagelayer"/></g><g class="minor-gridlayer"><g class="x"/><g class="y"/></g><g class="gridlayer"><g class="x"><path class="xgrid crisp" transform="translate(87.14,0)" d="M0,10v295" style="stroke: rgb(255, 255, 255); stroke-opacity: 1; stroke-width: 1px;"/><path class="xgrid crisp" transform="translate(110.27000000000001,0)" d="M0,10v295" style="stroke: rgb(255, 255, 255); stroke-opacity: 1; stroke-width: 1px;"/><path class="xgrid crisp" transform="translate(133.41,0)" d="M0,10v295" style="stroke: rgb(255, 255, 255); stroke-opacity: 1; stroke-width: 1px;"/><path class="xgrid crisp" transform="translate(156.54000000000002,0)" d="M0,10v295" style="stroke: rgb(255, 255, 255); stroke-opacity: 1; stroke-width: 1px;"/><path class="xgrid crisp" transform="translate(179.68,0)" d="M0,10v295" style="stroke: rgb(255, 255, 255); stroke-opacity: 1; stroke-width: 1px;"/><path class="xgrid crisp" transform="translate(202.81,0)" d="M0,10v295" style="stroke: rgb(255, 255, 255); stroke-opacity: 1; stroke-width: 1px;"/><path class="xgrid crisp" transform="translate(225.95,0)" d="M0,10v295" style="stroke: rgb(255, 255, 255); stroke-opacity: 1; stroke-width: 1px;"/><path class="xgrid crisp" transform="translate(249.08,0)" d="M0,10v295" style="stroke: rgb(255, 255, 255); stroke-opacity: 1; stroke-width: 1px;"/><path class="xgrid crisp" transform="translate(272.22,0)" d="M0,10v295" style="stroke: rgb(255, 255, 255); stroke-opacity: 1; stroke-width: 1px;"/><path class="xgrid crisp" transform="translate(295.36,0)" d="M0,10v295" style="stroke: rgb(255, 255, 255); stroke-opacity: 1; stroke-width: 1px;"/><path class="xgrid crisp" transform="translate(318.49,0)" d="M0,10v295" style="stroke: rgb(255, 255, 255); stroke-opacity: 1; stroke-width: 1px;"/><path class="xgrid crisp" transform="translate(341.63,0)" d="M0,10v295" style="stroke: rgb(255, 255, 255); stroke-opacity: 1; stroke-width: 1px;"/><path class="xgrid crisp" transform="translate(364.76,0)" d="M0,10v295" style="stroke: rgb(255, 255, 255); stroke-opacity: 1; stroke-width: 1px;"/><path class="xgrid crisp" transform="translate(387.9,0)" d="M0,10v295" style="stroke: rgb(255, 255, 255); stroke-opacity: 1; stroke-width: 1px;"/><path class="xgrid crisp" transform="translate(411.03,0)" d="M0,10v295" style="stroke: rgb(255, 255, 255); stroke-opacity: 1; stroke-width: 1px;"/><path class="xgrid crisp" transform="translate(434.17,0)" d="M0,10v295" style="stroke: rgb(255, 255, 255); stroke-opacity: 1; stroke-width: 1px;"/><path class="xgrid crisp" transform="translate(457.31,0)" d="M0,10v295" style="stroke: rgb(255, 255, 255); stroke-opacity: 1; stroke-width: 1px;"/><path class="xgrid crisp" transform="translate(480.44,0)" d="M0,10v295" style="stroke: rgb(255, 255, 255); stroke-opacity: 1; stroke-width: 1px;"/><path class="xgrid crisp" transform="translate(503.58,0)" d="M0,10v295" style="stroke: rgb(255, 255, 255); stroke-opacity: 1; stroke-width: 1px;"/></g><g class="y"><path class="ygrid crisp" transform="translate(0,242.02)" d="M64,0h455" style="stroke: rgb(255, 255, 255); stroke-opacity: 1; stroke-width: 1px;"/><path class="ygrid crisp" transform="translate(0,193.31)" d="M64,0h455" style="stroke: rgb(255, 255, 255); stroke-opacity: 1; stroke-width: 1px;"/><path class="ygrid crisp" transform="translate(0,144.59)" d="M64,0h455" style="stroke: rgb(255, 255, 255); stroke-opacity: 1; stroke-width: 1px;"/><path class="ygrid crisp" transform="translate(0,95.87)" d="M64,0h455" style="stroke: rgb(255, 255, 255); stroke-opacity: 1; stroke-width: 1px;"/><path class="ygrid crisp" transform="translate(0,47.16)" d="M64,0h455" style="stroke: rgb(255, 255, 255); stroke-opacity: 1; stroke-width: 1px;"/></g></g><g class="zerolinelayer"><path class="yzl zl crisp" transform="translate(0,290.74)" d="M64,0h455" style="stroke: rgb(255, 255, 255); stroke-opacity: 1; stroke-width: 2px;"/></g><path class="xlines-below"/><path class="ylines-below"/><g class="overlines-below"/><g class="xaxislayer-below"/><g class="yaxislayer-below"/><g class="overaxes-below"/><g class="plot" transform="translate(64,10)" clip-path="url(#clipe81c7fxyplot)"><g class="scatterlayer mlayer"><g class="trace scatter tracee087cf" style="stroke-miterlimit: 2; opacity: 1;"><g class="fills"/><g class="errorbars"/><g class="lines"><path class="js-line" d="M0,61.03L7.71,81.49L15.42,78.08L23.14,81.49L30.85,70.29L38.56,79.05L46.27,94.16L53.98,74.18L61.69,75.64L69.41,58.11L77.12,63.95L84.83,116.08L92.54,82.95L100.25,76.13L107.97,103.9L115.68,125.82L123.39,68.82L131.1,23.03L138.81,30.83L146.53,19.62L154.24,52.75L161.95,33.26L169.66,57.13L177.37,96.59L185.08,32.77L192.8,70.29L200.51,56.16L208.22,23.03L215.93,23.03L223.64,51.29L231.36,58.59L239.07,21.08L246.78,33.75L254.49,37.16L262.2,33.26L269.92,101.95L277.63,80.03L285.34,78.08L293.05,64.93L300.76,73.7L308.47,42.52L316.19,82.95L323.9,71.75L331.61,37.65L339.32,81.49L347.03,60.54L354.75,72.72L362.46,97.57L370.17,39.59L377.88,53.72L385.59,43.98L393.31,14.75L401.02,36.18L408.73,47.88L416.44,61.52L424.15,34.72L431.86,51.29L439.58,55.18L447.29,48.36L455,97.57" style="vector-effect: none; fill: none; stroke: rgb(156, 15, 72); stroke-opacity: 1; stroke-width: 2px; opacity: 1;"/></g><g class="points"/><g class="text"/></g><g class="trace scatter traceeda008" style="stroke-miterlimit: 2; opacity: 1;"><g class="fills"/><g class="errorbars"/><g class="lines"><path class="js-line" d="M0,150.18L7.71,147.74L15.42,127.77L23.14,132.64L30.85,151.64L38.56,132.64L46.27,149.21L53.98,147.74L61.69,130.69L69.41,124.85L77.12,140.44L92.54,153.59L100.25,157.97L107.97,184.28L115.68,225.69L123.39,202.31L131.1,164.31L138.81,139.95L146.53,145.31L154.24,153.1L161.95,140.92L169.66,156.03L177.37,153.59L185.08,157.49L192.8,174.54L200.51,179.9L208.22,184.28L215.93,156.03L223.64,169.18L231.36,170.64L239.07,157.97L246.78,169.67L254.49,155.54L262.2,156.03L269.92,180.38L277.63,174.05L285.34,175.02L293.05,174.54L300.76,176.49L316.19,168.69L323.9,167.72L331.61,159.44L339.32,162.85L347.03,143.85L354.75,157.97L362.46,181.84L370.17,150.67L377.88,176L385.59,157L393.31,157.49L401.02,143.85L408.73,152.62L416.44,156.03L424.15,148.23L431.86,141.9L439.58,128.74L447.29,151.64L455,175.51" style="vector-effect: none; fill: none; stroke: rgb(111, 207, 151); stroke-opacity: 1; stroke-width: 2px; opacity: 1;"/></g><g class="points"/><g class="text"/></g><g class="trace scatter tracec83551" style="stroke-miterlimit: 2; opacity: 1;"><g class="fills"/><g class="errorbars"/><g class="lines"><path class="js-line" d="M0,274.4L7.71,275.38L15.42,272.94L23.14,278.79L30.85,271.48L38.56,275.87L46.27,273.43L53.98,271.97L61.69,267.58L69.41,266.61L77.12,274.4L84.83,270.99L92.54,271.97L100.25,271.48L107.97,272.46L115.68,280.25L123.39,277.81L131.1,270.51L138.81,272.46L146.53,269.05L154.24,268.56L161.95,264.66L169.66,264.66L177.37,272.94L185.08,267.58L200.51,274.89L208.22,264.66L215.93,263.2L223.64,272.94L246.78,270.02L254.49,263.2L262.2,267.58L269.92,270.02L277.63,271.97L285.34,268.56L293.05,268.07L300.76,269.53L316.19,271.97L323.9,274.4L331.61,266.12L339.32,262.71L347.03,265.15L354.75,269.05L362.46,269.05L370.17,265.64L377.88,264.17L385.59,263.69L393.31,272.46L401.02,263.2L408.73,259.79L416.44,263.69L424.15,265.64L431.86,260.76L439.58,261.25L447.29,273.92L455,267.1" style="vector-effect: none; fill: none; stroke: rgb(114, 39, 112); stroke-opacity: 1; stroke-width: 2px; opacity: 1;"/></g><g class="points"/><g class="text"/></g><g class="trace scatter trace9dc74b" style="stroke-miterlimit: 2; opacity: 1;"><g class="fills"/><g class="errorbars"/><g class="lines"><path class="js-line" d="M0,269.53L7.71,272.46L15.42,265.15L23.14,267.1L30.85,267.1L38.56,263.69L46.27,264.17L53.98,268.56L61.69,267.1L69.41,269.05L77.12,269.05L84.83,270.51L92.54,266.61L100.25,265.64L107.97,270.51L115.68,278.3L123.39,271.97L138.81,268.56L146.53,266.61L154.24,263.69L161.95,266.61L169.66,265.64L177.37,270.99L185.08,265.64L192.8,267.58L200.51,270.02L208.22,265.64L215.93,264.17L223.64,266.12L231.36,263.69L239.07,259.79L246.78,263.2L254.49,264.66L262.2,257.84L269.92,260.28L277.63,267.1L285.34,268.56L293.05,267.1L300.76,267.58L308.47,264.17L316.19,262.23L323.9,261.25L331.61,252.97L339.32,268.56L347.03,263.2L354.75,258.82L362.46,265.15L370.17,266.61L377.88,261.74L385.59,258.33L393.31,255.89L401.02,257.35L408.73,255.89L416.44,264.66L424.15,264.17L431.86,252.97L439.58,265.15L447.29,264.66L455,269.05" style="vector-effect: none; fill: none; stroke: rgb(234, 95, 45); stroke-opacity: 1; stroke-width: 2px; opacity: 1;"/></g><g class="points"/><g class="text"/></g><g class="trace scatter trace8d0e17" style="stroke-miterlimit: 2; opacity: 1;"><g class="fills"/><g class="errorbars"/><g class="lines"><path class="js-line" d="M7.71,280.25L15.42,279.76L23.14,277.33L30.85,273.92L38.56,277.33L46.27,279.76L53.98,278.79L61.69,278.79L69.41,276.84L77.12,280.25L84.83,279.28L92.54,278.3L100.25,280.25L115.68,278.79L123.39,280.25L131.1,275.38L138.81,274.4L146.53,272.46L154.24,274.4L169.66,274.4L177.37,273.43L185.08,278.79L192.8,279.28L208.22,279.76L215.93,277.81L223.64,275.38L231.36,274.4L239.07,263.2L246.78,267.1L254.49,265.64L262.2,265.15L269.92,271.97L277.63,269.05L293.05,267.1L300.76,271.48L308.47,262.23L316.19,267.58L323.9,270.99L331.61,263.2L339.32,266.12L347.03,259.79L354.75,257.84L362.46,269.53L377.88,260.28L385.59,256.38L393.31,259.3L401.02,258.82L408.73,260.28L416.44,260.76L431.86,270.99L439.58,269.05L447.29,267.58L455,272.94" style="vector-effect: none; fill: none; stroke: rgb(111, 149, 255); stroke-opacity: 1; stroke-width: 2px; opacity: 1;"/></g><g class="points"/><g class="text"/></g></g></g><g class="overplot"/><path class="xlines-above crisp" d="M0,0" style="fill: none;"/><path class="ylines-above crisp" d="M0,0" style="fill: none;"/><g class="overlines-above"/><g class="xaxislayer-above"><g class="xtick"><text text-anchor="start" x="0" y="321" transform="translate(64,0) rotate(90,0,313.5)" style="font-family: 'Open Sans', verdana, arial, sans-serif; font-size: 15px; fill: rgb(42, 63, 95); fill-opacity: 1; white-space: pre; opacity: 1;">Jan/19</text></g><g class="xtick"><text text-anchor="start" x="0" y="321" transform="translate(87.14,0) rotate(90,0,313.5)" style="font-family: 'Open Sans', verdana, arial, sans-serif; font-size: 15px; fill: rgb(42, 63, 95); fill-opacity: 1; white-space: pre; opacity: 1;">Abr/19</text></g><g class="xtick"><text text-anchor="start" x="0" y="321" transform="translate(110.27000000000001,0) rotate(90,0,313.5)" style="font-family: 'Open Sans', verdana, arial, sans-serif; font-size: 15px; fill: rgb(42, 63, 95); fill-opacity: 1; white-space: pre; opacity: 1;">Jul/19</text></g><g class="xtick"><text text-anchor="start" x="0" y="321" transform="translate(133.41,0) rotate(90,0,313.5)" style="font-family: 'Open Sans', verdana, arial, sans-serif; font-size: 15px; fill: rgb(42, 63, 95); fill-opacity: 1; white-space: pre; opacity: 1;">Out/19</text></g><g class="xtick"><text text-anchor="start" x="0" y="321" transform="translate(156.54000000000002,0) rotate(90,0,313.5)" style="font-family: 'Open Sans', verdana, arial, sans-serif; font-size: 15px; fill: rgb(42, 63, 95); fill-opacity: 1; white-space: pre; opacity: 1;">Jan/20</text></g><g class="xtick"><text text-anchor="start" x="0" y="321" transform="translate(179.68,0) rotate(90,0,313.5)" style="font-family: 'Open Sans', verdana, arial, sans-serif; font-size: 15px; fill: rgb(42, 63, 95); fill-opacity: 1; white-space: pre; opacity: 1;">Abr/20</text></g><g class="xtick"><text text-anchor="start" x="0" y="321" transform="translate(202.81,0) rotate(90,0,313.5)" style="font-family: 'Open Sans', verdana, arial, sans-serif; font-size: 15px; fill: rgb(42, 63, 95); fill-opacity: 1; white-space: pre; opacity: 1;">Jul/20</text></g><g class="xtick"><text text-anchor="start" x="0" y="321" transform="translate(225.95,0) rotate(90,0,313.5)" style="font-family: 'Open Sans', verdana, arial, sans-serif; font-size: 15px; fill: rgb(42, 63, 95); fill-opacity: 1; white-space: pre; opacity: 1;">Out/20</text></g><g class="xtick"><text text-anchor="start" x="0" y="321" transform="translate(249.08,0) rotate(90,0,313.5)" style="font-family: 'Open Sans', verdana, arial, sans-serif; font-size: 15px; fill: rgb(42, 63, 95); fill-opacity: 1; white-space: pre; opacity: 1;">Jan/21</text></g><g class="xtick"><text text-anchor="start" x="0" y="321" transform="translate(272.22,0) rotate(90,0,313.5)" style="font-family: 'Open Sans', verdana, arial, sans-serif; font-size: 15px; fill: rgb(42, 63, 95); fill-opacity: 1; white-space: pre; opacity: 1;">Abr/21</text></g><g class="xtick"><text text-anchor="start" x="0" y="321" transform="translate(295.36,0) rotate(90,0,313.5)" style="font-family: 'Open Sans', verdana, arial, sans-serif; font-size: 15px; fill: rgb(42, 63, 95); fill-opacity: 1; white-space: pre; opacity: 1;">Jul/21</text></g><g class="xtick"><text text-anchor="start" x="0" y="321" transform="translate(318.49,0) rotate(90,0,313.5)" style="font-family: 'Open Sans', verdana, arial, sans-serif; font-size: 15px; fill: rgb(42, 63, 95); fill-opacity: 1; white-space: pre; opacity: 1;">Out/21</text></g><g class="xtick"><text text-anchor="start" x="0" y="321" transform="translate(341.63,0) rotate(90,0,313.5)" style="font-family: 'Open Sans', verdana, arial, sans-serif; font-size: 15px; fill: rgb(42, 63, 95); fill-opacity: 1; white-space: pre; opacity: 1;">Jan/22</text></g><g class="xtick"><text text-anchor="start" x="0" y="321" transform="translate(364.76,0) rotate(90,0,313.5)" style="font-family: 'Open Sans', verdana, arial, sans-serif; font-size: 15px; fill: rgb(42, 63, 95); fill-opacity: 1; white-space: pre; opacity: 1;">Abr/22</text></g><g class="xtick"><text text-anchor="start" x="0" y="321" transform="translate(387.9,0) rotate(90,0,313.5)" style="font-family: 'Open Sans', verdana, arial, sans-serif; font-size: 15px; fill: rgb(42, 63, 95); fill-opacity: 1; white-space: pre; opacity: 1;">Jul/22</text></g><g class="xtick"><text text-anchor="start" x="0" y="321" transform="translate(411.03,0) rotate(90,0,313.5)" style="font-family: 'Open Sans', verdana, arial, sans-serif; font-size: 15px; fill: rgb(42, 63, 95); fill-opacity: 1; white-space: pre; opacity: 1;">Out/22</text></g><g class="xtick"><text text-anchor="start" x="0" y="321" transform="translate(434.17,0) rotate(90,0,313.5)" style="font-family: 'Open Sans', verdana, arial, sans-serif; font-size: 15px; fill: rgb(42, 63, 95); fill-opacity: 1; white-space: pre; opacity: 1;">Jan/23</text></g><g class="xtick"><text text-anchor="start" x="0" y="321" transform="translate(457.31,0) rotate(90,0,313.5)" style="font-family: 'Open Sans', verdana, arial, sans-serif; font-size: 15px; fill: rgb(42, 63, 95); fill-opacity: 1; white-space: pre; opacity: 1;">Abr/23</text></g><g class="xtick"><text text-anchor="start" x="0" y="321" transform="translate(480.44,0) rotate(90,0,313.5)" style="font-family: 'Open Sans', verdana, arial, sans-serif; font-size: 15px; fill: rgb(42, 63, 95); fill-opacity: 1; white-space: pre; opacity: 1;">Jul/23</text></g><g class="xtick"><text text-anchor="start" x="0" y="321" transform="translate(503.58,0) rotate(90,0,313.5)" style="font-family: 'Open Sans', verdana, arial, sans-serif; font-size: 15px; fill: rgb(42, 63, 95); fill-opacity: 1; white-space: pre; opacity: 1;">Out/23</text></g></g><g class="yaxislayer-above"><g class="ytick"><text text-anchor="end" x="63" y="5.25" transform="translate(0,290.74)" style="font-family: 'Open Sans', verdana, arial, sans-serif; font-size: 15px; fill: rgb(42, 63, 95); fill-opacity: 1; white-space: pre; opacity: 1;">0</text></g><g class="ytick"><text text-anchor="end" x="63" y="5.25" style="font-family: 'Open Sans', verdana, arial, sans-serif; font-size: 15px; fill: rgb(42, 63, 95); fill-opacity: 1; white-space: pre; opacity: 1;" transform="translate(0,242.02)">100</text></g><g class="ytick"><text text-anchor="end" x="63" y="5.25" style="font-family: 'Open Sans', verdana, arial, sans-serif; font-size: 15px; fill: rgb(42, 63, 95); fill-opacity: 1; white-space: pre; opacity: 1;" transform="translate(0,193.31)">200</text></g><g class="ytick"><text text-anchor="end" x="63" y="5.25" style="font-family: 'Open Sans', verdana, arial, sans-serif; font-size: 15px; fill: rgb(42, 63, 95); fill-opacity: 1; white-space: pre; opacity: 1;" transform="translate(0,144.59)">300</text></g><g class="ytick"><text text-anchor="end" x="63" y="5.25" style="font-family: 'Open Sans', verdana, arial, sans-serif; font-size: 15px; fill: rgb(42, 63, 95); fill-opacity: 1; white-space: pre; opacity: 1;" transform="translate(0,95.87)">400</text></g><g class="ytick"><text text-anchor="end" x="63" y="5.25" style="font-family: 'Open Sans', verdana, arial, sans-serif; font-size: 15px; fill: rgb(42, 63, 95); fill-opacity: 1; white-space: pre; opacity: 1;" transform="translate(0,47.16)">500</text></g></g><g class="overaxes-above"/></g></g><g class="polarlayer"/><g class="smithlayer"/><g class="ternarylayer"/><g class="geolayer"/><g class="funnelarealayer"/><g class="pielayer"/><g class="iciclelayer"/><g class="treemaplayer"/><g class="sunburstlayer"/><g class="glimages"/><defs id="topdefs-e81c7f"><g class="clips"/><clipPath id="legende81c7f"><rect width="112" height="146" x="0" y="0"/></clipPath></defs><g class="layer-above"><g class="imagelayer"/><g class="shapelayer"/></g><g class="infolayer"><g class="legend" pointer-events="all" transform="translate(528.1,10)"><rect class="bg" shape-rendering="crispEdges" width="112" height="146" x="0" y="0" style="stroke: rgb(68, 68, 68); stroke-opacity: 1; fill: rgb(255, 245, 238); fill-opacity: 1; stroke-width: 0px;"/><g class="scrollbox" transform="" clip-path="url(#legende81c7f)"><text class="legendtitletext" text-anchor="start" x="2" y="23.400000000000002" style="font-family: 'Open Sans', verdana, arial, sans-serif; font-size: 18px; fill: rgb(42, 63, 95); fill-opacity: 1; white-space: pre;">Crimes</text><g class="groups" transform=""><g class="traces" transform="translate(0,39.650000000000006)" style="opacity: 1;"><text class="legendtext" text-anchor="start" x="40" y="5.85" style="font-family: 'Open Sans', verdana, arial, sans-serif; font-size: 15px; fill: rgb(42, 63, 95); fill-opacity: 1; white-space: pre;">Ameaça</text><g class="layers" style="opacity: 1;"><g class="legendfill"/><g class="legendlines"><path class="js-line" d="M5,0h30" style="fill: none; stroke: rgb(156, 15, 72); stroke-opacity: 1; stroke-width: 2px;"/></g><g class="legendsymbols"><g class="legendpoints"/></g></g><rect class="legendtoggle" x="0" y="-11.25" width="106.765625" height="22.5" style="fill: rgb(0, 0, 0); fill-opacity: 0;"/></g></g><g class="groups" transform=""><g class="traces" transform="translate(0,62.150000000000006)" style="opacity: 1;"><text class="legendtext" text-anchor="start" x="40" y="5.85" style="font-family: 'Open Sans', verdana, arial, sans-serif; font-size: 15px; fill: rgb(42, 63, 95); fill-opacity: 1; white-space: pre;">Les. corp.</text><g class="layers" style="opacity: 1;"><g class="legendfill"/><g class="legendlines"><path class="js-line" d="M5,0h30" style="fill: none; stroke: rgb(111, 207, 151); stroke-opacity: 1; stroke-width: 2px;"/></g><g class="legendsymbols"><g class="legendpoints"/></g></g><rect class="legendtoggle" x="0" y="-11.25" width="106.765625" height="22.5" style="fill: rgb(0, 0, 0); fill-opacity: 0;"/></g></g><g class="groups" transform=""><g class="traces" transform="translate(0,84.65)" style="opacity: 1;"><text class="legendtext" text-anchor="start" x="40" y="5.85" style="font-family: 'Open Sans', verdana, arial, sans-serif; font-size: 15px; fill: rgb(42, 63, 95); fill-opacity: 1; white-space: pre;">Imp. sex.</text><g class="layers" style="opacity: 1;"><g class="legendfill"/><g class="legendlines"><path class="js-line" d="M5,0h30" style="fill: none; stroke: rgb(114, 39, 112); stroke-opacity: 1; stroke-width: 2px;"/></g><g class="legendsymbols"><g class="legendpoints"/></g></g><rect class="legendtoggle" x="0" y="-11.25" width="106.765625" height="22.5" style="fill: rgb(0, 0, 0); fill-opacity: 0;"/></g></g><g class="groups" transform=""><g class="traces" transform="translate(0,107.15)" style="opacity: 1;"><text class="legendtext" text-anchor="start" x="40" y="5.85" style="font-family: 'Open Sans', verdana, arial, sans-serif; font-size: 15px; fill: rgb(42, 63, 95); fill-opacity: 1; white-space: pre;">Est. vul.</text><g class="layers" style="opacity: 1;"><g class="legendfill"/><g class="legendlines"><path class="js-line" d="M5,0h30" style="fill: none; stroke: rgb(234, 95, 45); stroke-opacity: 1; stroke-width: 2px;"/></g><g class="legendsymbols"><g class="legendpoints"/></g></g><rect class="legendtoggle" x="0" y="-11.25" width="106.765625" height="22.5" style="fill: rgb(0, 0, 0); fill-opacity: 0;"/></g></g><g class="groups" transform=""><g class="traces" transform="translate(0,129.65)" style="opacity: 1;"><text class="legendtext" text-anchor="start" x="40" y="5.85" style="font-family: 'Open Sans', verdana, arial, sans-serif; font-size: 15px; fill: rgb(42, 63, 95); fill-opacity: 1; white-space: pre;">Viol. psic.</text><g class="layers" style="opacity: 1;"><g class="legendfill"/><g class="legendlines"><path class="js-line" d="M5,0h30" style="fill: none; stroke: rgb(111, 149, 255); stroke-opacity: 1; stroke-width: 2px;"/></g><g class="legendsymbols"><g class="legendpoints"/></g></g><rect class="legendtoggle" x="0" y="-11.25" width="106.765625" height="22.5" style="fill: rgb(0, 0, 0); fill-opacity: 0;"/></g></g></g><rect class="scrollbar" rx="20" ry="3" width="0" height="0" x="0" y="0" style="fill: rgb(128, 139, 164); fill-opacity: 1;"/></g><g class="g-gtitle"/><g class="g-xtitle"><text class="xtitle" x="291.5" y="389.88125" text-anchor="middle" style="font-family: 'Open Sans', verdana, arial, sans-serif; font-size: 18px; fill: rgb(42, 63, 95); opacity: 1; font-weight: normal; white-space: pre;">Mês/Ano</text></g><g class="g-ytitle"/></g></svg>