<svg class="main-svg" xmlns="http://www.w3.org/2000/svg" xmlns:xlink="http://www.w3.org/1999/xlink" width="650" height="400" style="" viewBox="0 0 650 400"><rect x="0" y="0" width="650" height="400" style="fill: rgb(255, 255, 255); fill-opacity: 1;"/><defs id="defs-8c7fc3"><g class="clips"><clipPath id="clip8c7fc3xyplot" class="plotclip"><rect width="375" height="332"/></clipPath><clipPath class="axesclip" id="clip8c7fc3x"><rect x="64" y="0" width="375" height="400"/></clipPath><clipPath class="axesclip" id="clip8c7fc3y"><rect x="0" y="10" width="650" height="332"/></clipPath><clipPath class="axesclip" id="clip8c7fc3xy"><rect x="64" y="10" width="375" height="332"/></clipPath></g><g class="gradients"/><g class="patterns"/></defs><g class="bglayer"><rect class="bg" x="64" y="10" width="375" height="332" style="fill: rgb(255, 245, 238); fill-opacity: 1; stroke-width: 0;"/></g><g class="layer-below"><g class="imagelayer"/><g class="shapelayer"/></g><g class="cartesianlayer"><g class="subplot xy"><g class="layer-subplot"><g class="shapelayer"/><g class="imagelayer"/></g><g class="minor-gridlayer"><g class="x"/><g class="y"/></g><g class="gridlayer"><g class="x"><path class="xgrid crisp" transform="translate(86.5,0)" d="M0,10v332" style="stroke: rgb(255, 255, 255); stroke-opacity: 1; stroke-width: 1px;"/><path class="xgrid crisp" transform="translate(169,0)" d="M0,10v332" style="stroke: rgb(255, 255, 255); stroke-opacity: 1; stroke-width: 1px;"/><path class="xgrid crisp" transform="translate(251.5,0)" d="M0,10v332" style="stroke: rgb(255, 255, 255); stroke-opacity: 1; stroke-width: 1px;"/><path class="xgrid crisp" transform="translate(334,0)" d="M0,10v332" style="stroke: rgb(255, 255, 255); stroke-opacity: 1; stroke-width: 1px;"/><path class="xgrid crisp" transform="translate(416.5,0)" d="M0,10v332" style="stroke: rgb(255, 255, 255); stroke-opacity: 1; stroke-width: 1px;"/></g><g class="y"><path class="ygrid crisp" transform="translate(0,272.93)" d="M64,0h375" style="stroke: rgb(255, 255, 255); stroke-opacity: 1; stroke-width: 1px;"/><path class="ygrid crisp" transform="translate(0,223.22)" d="M64,0h375" style="stroke: rgb(255, 255, 255); stroke-opacity: 1; stroke-width: 1px;"/><path class="ygrid crisp" transform="translate(0,173.51)" d="M64,0h375" style="stroke: rgb(255, 255, 255); stroke-opacity: 1; stroke-width: 1px;"/><path class="ygrid crisp" transform="translate(0,123.8)" d="M64,0h375" style="stroke: rgb(255, 255, 255); stroke-opacity: 1; stroke-width: 1px;"/><path class="ygrid crisp" transform="translate(0,74.09)" d="M64,0h375" style="stroke: rgb(255, 255, 255); stroke-opacity: 1; stroke-width: 1px;"/><path class="ygrid crisp" transform="translate(0,24.380000000000003)" d="M64,0h375" style="stroke: rgb(255, 255, 255); stroke-opacity: 1; stroke-width: 1px;"/></g></g><g class="zerolinelayer"><path class="yzl zl crisp" transform="translate(0,322.64)" d="M64,0h375" style="stroke: rgb(255, 255, 255); stroke-opacity: 1; stroke-width: 2px;"/></g><path class="xlines-below"/><path class="ylines-below"/><g class="overlines-below"/><g class="xaxislayer-below"/><g class="yaxislayer-below"/><g class="overaxes-below"/><g class="plot" transform="translate(64,10)" clip-path="url(#clip8c7fc3xyplot)"><g class="scatterlayer mlayer"><g class="trace scatter tracecb183b" style="stroke-miterlimit: 2; opacity: 1;"><g class="fills"/><g class="errorbars"/><g class="lines"><path class="js-line" d="M22.5,20.35L105,311.65L187.5,311.65L270,306.68L352.5,287.79" style="vector-effect: none; fill: none; stroke: rgb(156, 15, 72); stroke-opacity: 1; stroke-width: 3px; opacity: 1;"/></g><g class="points"><path class="point" transform="translate(22.5,20.35)" d="M3,0A3,3 0 1,1 0,-3A3,3 0 0,1 3,0Z" style="opacity: 1; stroke-width: 0px; fill: rgb(156, 15, 72); fill-opacity: 1;"/><path class="point" transform="translate(105,311.65)" d="M3,0A3,3 0 1,1 0,-3A3,3 0 0,1 3,0Z" style="opacity: 1; stroke-width: 0px; fill: rgb(156, 15, 72); fill-opacity: 1;"/><path class="point" transform="translate(187.5,311.65)" d="M3,0A3,3 0 1,1 0,-3A3,3 0 0,1 3,0Z" style="opacity: 1; stroke-width: 0px; fill: rgb(156, 15, 72); fill-opacity: 1;"/><path class="point" transform="translate(270,306.68)" d="M3,0A3,3 0 1,1 0,-3A3,3 0 0,1 3,0Z" style="opacity: 1; stroke-width: 0px; fill: rgb(156, 15, 72); fill-opacity: 1;"/><path class="point" transform="translate(352.5,287.79)" d="M3,0A3,3 0 1,1 0,-3A3,3 0 0,1 3,0Z" style="opacity: 1; stroke-width: 0px; fill: rgb(156, 15, 72); fill-opacity: 1;"/></g><g class="text"/></g><g class="trace scatter trace509c98" style="stroke-miterlimit: 2; opacity: 1;"><g class="fills"/><g class="errorbars"/><g class="lines"><path class="js-line" d="M22.5,293.75L105,288.78L187.5,276.85L270,258.96L352.5,303.7" style="vector-effect: none; fill: none; stroke: rgb(111, 207, 151); stroke-opacity: 1; stroke-width: 3px; opacity: 1;"/></g><g class="points"><path class="point" transform="translate(22.5,293.75)" d="M3.9,0L0,3.9L-3.9,0L0,-3.9Z" style="opacity: 1; stroke-width: 0px; fill: rgb(111, 207, 151); fill-opacity: 1;"/><path class="point" transform="translate(105,288.78)" d="M3.9,0L0,3.9L-3.9,0L0,-3.9Z" style="opacity: 1; stroke-width: 0px; fill: rgb(111, 207, 151); fill-opacity: 1;"/><path class="point" transform="translate(187.5,276.85)" d="M3.9,0L0,3.9L-3.9,0L0,-3.9Z" style="opacity: 1; stroke-width: 0px; fill: rgb(111, 207, 151); fill-opacity: 1;"/><path class="point" transform="translate(270,258.96)" d="M3.9,0L0,3.9L-3.9,0L0,-3.9Z" style="opacity: 1; stroke-width: 0px; fill: rgb(111, 207, 151); fill-opacity: 1;"/><path class="point" transform="translate(352.5,303.7)" d="M3.9,0L0,3.9L-3.9,0L0,-3.9Z" style="opacity: 1; stroke-width: 0px; fill: rgb(111, 207, 151); fill-opacity: 1;"/></g><g class="text"/></g><g class="trace scatter trace14970e" style="stroke-miterlimit: 2; opacity: 1;"><g class="fills"/><g class="errorbars"/><g class="lines"><path class="js-line" d="M187.5,305.68L270,282.82" style="vector-effect: none; fill: none; stroke: rgb(114, 39, 112); stroke-opacity: 1; stroke-width: 3px; opacity: 1;"/></g><g class="points"><path class="point" transform="translate(187.5,305.68)" d="M3,3H-3V-3H3Z" style="opacity: 1; stroke-width: 0px; fill: rgb(114, 39, 112); fill-opacity: 1;"/><path class="point" transform="translate(270,282.82)" d="M3,3H-3V-3H3Z" style="opacity: 1; stroke-width: 0px; fill: rgb(114, 39, 112); fill-opacity: 1;"/></g><g class="text"/></g></g></g><g class="overplot"/><path class="xlines-above crisp" d="M0,0" style="fill: none;"/><path class="ylines-above crisp" d="M0,0" style="fill: none;"/><g class="overlines-above"/><g class="xaxislayer-above"><g class="xtick"><text text-anchor="middle" x="0" y="358" transform="translate(86.5,0)" style="font-family: 'Open Sans', verdana, arial, sans-serif; font-size: 15px; fill: rgb(42, 63, 95); fill-opacity: 1; white-space: pre; opacity: 1;">2019</text></g><g class="xtick"><text text-anchor="middle" x="0" y="358" style="font-family: 'Open Sans', verdana, arial, sans-serif; font-size: 15px; fill: rgb(42, 63, 95); fill-opacity: 1; white-space: pre; opacity: 1;" transform="translate(169,0)">2020</text></g><g class="xtick"><text text-anchor="middle" x="0" y="358" style="font-family: 'Open Sans', verdana, arial, sans-serif; font-size: 15px; fill: rgb(42, 63, 95); fill-opacity: 1; white-space: pre; opacity: 1;" transform="translate(251.5,0)">2021</text></g><g class="xtick"><text text-anchor="middle" x="0" y="358" style="font-family: 'Open Sans', verdana, arial, sans-serif; font-size: 15px; fill: rgb(42, 63, 95); fill-opacity: 1; white-space: pre; opacity: 1;" transform="translate(334,0)">2022</text></g><g class="xtick"><text text-anchor="middle" x="0" y="358" style="font-family: 'Open Sans', verdana, arial, sans-serif; font-size: 15px; fill: rgb(42, 63, 95); fill-opacity: 1; white-space: pre; opacity: 1;" transform="translate(416.5,0)">2023</text></g></g><g class="yaxislayer-above"><g class="ytick"><text text-anchor="end" x="63" y="5.25" transform="translate(0,322.64)" style="font-family: 'Open Sans', verdana, arial, sans-serif; font-size: 15px; fill: rgb(42, 63, 95); fill-opacity: 1; white-space: pre; opacity: 1;">0</text></g><g class="ytick"><text text-anchor="end" x="63" y="5.25" style="font-family: 'Open Sans', verdana, arial, sans-serif; font-size: 15px; fill: rgb(42, 63, 95); fill-opacity: 1; white-space: pre; opacity: 1;" transform="translate(0,272.93)">50</text></g><g class="ytick"><text text-anchor="end" x="63" y="5.25" style="font-family: 'Open Sans', verdana, arial, sans-serif; font-size: 15px; fill: rgb(42, 63, 95); fill-opacity: 1; white-space: pre; opacity: 1;" transform="translate(0,223.22)">100</text></g><g class="ytick"><text text-anchor="end" x="63" y="5.25" style="font-family: 'Open Sans', verdana, arial, sans-serif; font-size: 15px; fill: rgb(42, 63, 95); fill-opacity: 1; white-space: pre; opacity: 1;" transform="translate(0,173.51)">150</text></g><g class="ytick"><text text-anchor="end" x="63" y="5.25" style="font-family: 'Open Sans', verdana, arial, sans-serif; font-size: 15px; fill: rgb(42, 63, 95); fill-opacity: 1; white-space: pre; opacity: 1;" transform="translate(0,123.8)">200</text></g><g class="ytick"><text text-anchor="end" x="63" y="5.25" style="font-family: 'Open Sans', verdana, arial, sans-serif; font-size: 15px; fill: rgb(42, 63, 95); fill-opacity: 1; white-space: pre; opacity: 1;" transform="translate(0,74.09)">250</text></g><g class="ytick"><text text-anchor="end" x="63" y="5.25" style="font-family: 'Open Sans', verdana, arial, sans-serif; font-size: 15px; fill: rgb(42, 63, 95); fill-opacity: 1; white-space: pre; opacity: 1;" transform="translate(0,24.380000000000003)">300</text></g></g><g class="overaxes-above"/></g></g><g class="polarlayer"/><g class="smithlayer"/><g class="ternarylayer"/><g class="geolayer"/><g class="funnelarealayer"/><g class="pielayer"/><g class="iciclelayer"/><g class="treemaplayer"/><g class="sunburstlayer"/><g class="glimages"/><defs id="topdefs-8c7fc3"><g class="clips"/><clipPath id="legend8c7fc3"><rect width="194" height="101" x="0" y="0"/></clipPath></defs><g class="layer-above"><g class="imagelayer"/><g class="shapelayer"/></g><g class="infolayer"><g class="legend" pointer-events="all" transform="translate(446.5,10)"><rect class="bg" shape-rendering="crispEdges" width="194" height="101" x="0" y="0" style="stroke: rgb(68, 68, 68); stroke-opacity: 1; fill: rgb(255, 245, 238); fill-opacity: 1; stroke-width: 0px;"/><g class="scrollbox" transform="" clip-path="url(#legend8c7fc3)"><text class="legendtitletext" text-anchor="start" x="2" y="23.400000000000002" style="font-family: 'Open Sans', verdana, arial, sans-serif; font-size: 18px; fill: rgb(42, 63, 95); fill-opacity: 1; white-space: pre;">Tipos de violência</text><g class="groups" transform=""><g class="traces" transform="translate(0,39.650000000000006)" style="opacity: 1;"><text class="legendtext" text-anchor="start" x="40" y="5.85" style="font-family: 'Open Sans', verdana, arial, sans-serif; font-size: 15px; fill: rgb(42, 63, 95); fill-opacity: 1; white-space: pre;">Outros</text><g class="layers" style="opacity: 1;"><g class="legendfill"/><g class="legendlines"><path class="js-line" d="M5,0h30" style="fill: none; stroke: rgb(156, 15, 72); stroke-opacity: 1; stroke-width: 3px;"/></g><g class="legendsymbols"><g class="legendpoints"><path class="scatterpts" transform="translate(20,0)" d="M3,0A3,3 0 1,1 0,-3A3,3 0 0,1 3,0Z" style="opacity: 1; stroke-width: 0px; fill: rgb(156, 15, 72); fill-opacity: 1;"/></g></g></g><rect class="legendtoggle" x="0" y="-11.25" width="188.28125" height="22.5" style="fill: rgb(0, 0, 0); fill-opacity: 0;"/></g></g><g class="groups" transform=""><g class="traces" transform="translate(0,62.150000000000006)" style="opacity: 1;"><text class="legendtext" text-anchor="start" x="40" y="5.85" style="font-family: 'Open Sans', verdana, arial, sans-serif; font-size: 15px; fill: rgb(42, 63, 95); fill-opacity: 1; white-space: pre;">Violência moral</text><g class="layers" style="opacity: 1;"><g class="legendfill"/><g class="legendlines"><path class="js-line" d="M5,0h30" style="fill: none; stroke: rgb(111, 207, 151); stroke-opacity: 1; stroke-width: 3px;"/></g><g class="legendsymbols"><g class="legendpoints"><path class="scatterpts" transform="translate(20,0)" d="M3.9,0L0,3.9L-3.9,0L0,-3.9Z" style="opacity: 1; stroke-width: 0px; fill: rgb(111, 207, 151); fill-opacity: 1;"/></g></g></g><rect class="legendtoggle" x="0" y="-11.25" width="188.28125" height="22.5" style="fill: rgb(0, 0, 0); fill-opacity: 0;"/></g></g><g class="groups" transform=""><g class="traces" transform="translate(0,84.65)" style="opacity: 1;"><text class="legendtext" text-anchor="start" x="40" y="5.85" style="font-family: 'Open Sans', verdana, arial, sans-serif; font-size: 15px; fill: rgb(42, 63, 95); fill-opacity: 1; white-space: pre;">Violência patrimonial</text><g class="layers" style="opacity: 1;"><g class="legendfill"/><g class="legendlines"><path class="js-line" d="M5,0h30" style="fill: none; stroke: rgb(114, 39, 112); stroke-opacity: 1; stroke-width: 3px;"/></g><g class="legendsymbols"><g class="legendpoints"><path class="scatterpts" transform="translate(20,0)" d="M3,3H-3V-3H3Z" style="opacity: 1; stroke-width: 0px; fill: rgb(114, 39, 112); fill-opacity: 1;"/></g></g></g><rect class="legendtoggle" x="0" y="-11.25" width="188.28125" height="22.5" style="fill: rgb(0, 0, 0); fill-opacity: 0;"/></g></g></g><rect class="scrollbar" rx="20" ry="3" width="0" height="0" x="0" y="0" style="fill: rgb(128, 139, 164); fill-opacity: 1;"/></g><g class="g-gtitle"/><g class="g-xtitle"><text class="xtitle" x="251.5" y="389.1" text-anchor="middle" style="font-family: 'Open Sans', verdana, arial, sans-serif; font-size: 18px; fill: rgb(42, 63, 95); opacity: 1; font-weight: normal; white-space: pre;">Anos</text></g><g class="g-ytitle" transform="translate(8.833984375,0)"><text class="ytitle" transform="rotate(-90,10.165624999999999,176)" x="10.165624999999999" y="176" text-anchor="middle" style="font-family: 'Open Sans', verdana, arial, sans-serif; font-size: 18px; fill: rgb(42, 63, 95); opacity: 1; font-weight: normal; white-space: pre;">Frequência</text></g></g></svg>