<svg class="main-svg" xmlns="http://www.w3.org/2000/svg" xmlns:xlink="http://www.w3.org/1999/xlink" width="750" height="500" style="" viewBox="0 0 750 500"><rect x="0" y="0" width="750" height="500" style="fill: rgb(255, 255, 255); fill-opacity: 1;"/><defs id="defs-808eeb"><g class="clips"/><g class="gradients"/><g class="patterns"/></defs><g class="bglayer"/><g class="layer-below"><g class="imagelayer"/><g class="shapelayer"/></g><g class="cartesianlayer"/><g class="polarlayer"/><g class="smithlayer"/><g class="ternarylayer"/><g class="geolayer"/><g class="funnelarealayer"/><g class="pielayer"/><g class="iciclelayer"/><g class="treemaplayer"/><g class="sunburstlayer"><g class="trace sunburst" stroke-linejoin="round" style="opacity: 1;"><g class="slice cursor-pointer"><path class="surface" d="M375,260L455,260A80,80 0,1,0 311.48430818230327,308.63904699847L375,260A0,0 0,1,1 375,260Z" style="pointer-events: none; stroke-width: 1; fill: rgb(156, 15, 72); fill-opacity: 1; stroke: rgb(255, 255, 255); stroke-opacity: 1;"/><g class="slicetext"><text data-notex="1" class="slicetext" text-anchor="middle" x="0" y="0" style="font-family: 'Open Sans', verdana, arial, sans-serif; font-size: 12px; fill: rgb(255, 255, 255); fill-opacity: 1; white-space: pre;" transform="translate(370.7765353306334,245.9803917651932)rotate(-18.722085165719136)">Violência Psicológica</text></g></g><g class="slice cursor-pointer"><path class="surface" d="M375,260L311.48430818230327,308.63904699847A80,80 0,0,0 447.19240611053067,294.4710965878983L375,260A0,0 0,0,1 375,260Z" style="pointer-events: none; stroke-width: 1; fill: rgb(111, 207, 151); fill-opacity: 1; stroke: rgb(255, 255, 255); stroke-opacity: 1;"/><g class="slicetext"><text data-notex="1" class="slicetext" text-anchor="middle" x="0" y="0" style="font-family: 'Open Sans', verdana, arial, sans-serif; font-size: 12px; fill: rgb(68, 68, 68); fill-opacity: 1; white-space: pre;" transform="translate(380.96456154129,312.3164218743624)rotate(-5.960098680682222)">Violência Física</text></g></g><g class="slice cursor-pointer"><path class="surface" d="M375,260L447.19240611053067,294.4710965878983A80,80 0,0,0 455,259.99999999999994L375,260A0,0 0,0,1 375,260Z" style="pointer-events: none; stroke-width: 1; fill: rgb(99, 58, 130); fill-opacity: 1; stroke: rgb(255, 255, 255); stroke-opacity: 1;"/><g class="slicetext"><text data-notex="1" class="slicetext" text-anchor="middle" x="0" y="0" style="font-family: 'Open Sans', verdana, arial, sans-serif; font-size: 12px; fill: rgb(255, 255, 255); fill-opacity: 1; white-space: pre;" transform="translate(425.020570574593,273.98471430308086)scale(0.5754710844327018)rotate(12.76198648503697)">Violência Sexual</text></g></g><g class="slice"><path class="surface" d="M455,260L535,260A160,160 0,1,0 234.7421281698088,336.9917488414548L304.8710640849044,298.49587442072743A80,80 0,1,1 455,260Z" style="pointer-events: none; stroke-width: 1; fill: rgb(156, 15, 72); fill-opacity: 1; stroke: rgb(255, 255, 255); stroke-opacity: 1; opacity: 0.7;"/><g class="slicetext"><text data-notex="1" class="slicetext" text-anchor="middle" x="0" y="0" style="font-family: 'Open Sans', verdana, arial, sans-serif; font-size: 12px; fill: rgb(255, 255, 255); fill-opacity: 1; white-space: pre;" transform="translate(349.2129537011426,158.23862115680433)rotate(-14.381851335407077)">AMEACA</text></g></g><g class="slice"><path class="surface" d="M304.8710640849044,298.49587442072743L234.7421281698088,336.9917488414548A160,160 0,0,0 247.9686163646066,357.27809399694L311.48430818230327,308.63904699847A80,80 0,0,1 304.8710640849044,298.49587442072743Z" style="pointer-events: none; stroke-width: 1; fill: rgb(156, 15, 72); fill-opacity: 1; stroke: rgb(255, 255, 255); stroke-opacity: 1; opacity: 0.7;"/><g class="slicetext"><text data-notex="1" class="slicetext" text-anchor="middle" x="0" y="0" style="font-family: 'Open Sans', verdana, arial, sans-serif; font-size: 12px; fill: rgb(255, 255, 255); fill-opacity: 1; white-space: pre;" transform="translate(275.977482122294,327.4777937512509)scale(0.5428418978094246)rotate(-33.10393650112633)">VIOLENCIA PSICOLOGICA</text></g></g><g class="slice"><path class="surface" d="M311.48430818230327,308.63904699847L247.96861636460653,357.27809399693996A160,160 0,0,0 518.1450314797468,331.48076638272926L446.5725157398734,295.74038319136463A80,80 0,0,1 311.48430818230327,308.63904699847Z" style="pointer-events: none; stroke-width: 1; fill: rgb(111, 207, 151); fill-opacity: 1; stroke: rgb(255, 255, 255); stroke-opacity: 1; opacity: 0.7;"/><g class="slicetext"><text data-notex="1" class="slicetext" text-anchor="middle" x="0" y="0" style="font-family: 'Open Sans', verdana, arial, sans-serif; font-size: 12px; fill: rgb(68, 68, 68); fill-opacity: 1; white-space: pre;" transform="translate(384.64079256772146,364.99584022388666)rotate(-5.454252922878936)">LESAO CORPORAL</text></g></g><g class="slice"><path class="surface" d="M446.5725157398734,295.74038319136463L518.1450314797468,331.48076638272926A160,160 0,0,0 519.3848122210613,328.94219317579655L447.19240611053067,294.4710965878983A80,80 0,0,1 446.5725157398734,295.74038319136463Z" style="pointer-events: none; stroke-width: 1; fill: rgb(111, 207, 151); fill-opacity: 1; stroke: rgb(255, 255, 255); stroke-opacity: 1; opacity: 0.7;"/><g class="slicetext"><text data-notex="1" class="slicetext" text-anchor="middle" x="0" y="0" style="font-family: 'Open Sans', verdana, arial, sans-serif; font-size: 12px; fill: rgb(68, 68, 68); fill-opacity: 1; white-space: pre;" transform="translate(513.9397849216416,328.6055583067753)scale(0.14987365888830279)rotate(26.029818727877284)">HOMICIDIO</text></g></g><g class="slice"><path class="surface" d="M447.19240611053067,294.4710965878983L519.3848122210613,328.94219317579655A160,160 0,0,0 532.2040210785576,289.780795099064L453.6020105392788,274.890397549532A80,80 0,0,1 447.19240611053067,294.4710965878983Z" style="pointer-events: none; stroke-width: 1; fill: rgb(99, 58, 130); fill-opacity: 1; stroke: rgb(255, 255, 255); stroke-opacity: 1; opacity: 0.7;"/><g class="slicetext"><text data-notex="1" class="slicetext" text-anchor="middle" x="0" y="0" style="font-family: 'Open Sans', verdana, arial, sans-serif; font-size: 12px; fill: rgb(255, 255, 255); fill-opacity: 1; white-space: pre;" transform="translate(488.0968065021924,299.4836559729927)scale(0.520006377519868)rotate(18.12549608495118)">ESTUPRO DE VULNERAVEL</text></g></g><g class="slice"><path class="surface" d="M453.6020105392788,274.890397549532L532.2040210785576,289.780795099064A160,160 0,0,0 535,259.9999999999999L455,259.99999999999994A80,80 0,0,1 453.6020105392788,274.890397549532Z" style="pointer-events: none; stroke-width: 1; fill: rgb(99, 58, 130); fill-opacity: 1; stroke: rgb(255, 255, 255); stroke-opacity: 1; opacity: 0.7;"/><g class="slicetext"><text data-notex="1" class="slicetext" text-anchor="middle" x="0" y="0" style="font-family: 'Open Sans', verdana, arial, sans-serif; font-size: 12px; fill: rgb(255, 255, 255); fill-opacity: 1; white-space: pre;" transform="translate(493.9980469628412,273.6321960892495)scale(0.5442795213094138)rotate(5.363509599914153)">IMPORTUNACAO SEXUAL</text></g></g></g></g><g class="glimages"/><defs id="topdefs-808eeb"><g class="clips"/></defs><g class="layer-above"><g class="imagelayer"/><g class="shapelayer"/></g><g class="infolayer"><g class="g-gtitle"><text class="gtitle" x="37.5" y="50" text-anchor="start" dy="0em" style="font-family: 'Open Sans', verdana, arial, sans-serif; font-size: 17px; fill: rgb(42, 63, 95); opacity: 1; font-weight: normal; white-space: pre;">Crimes mais frequentes de acordo com o tipo de violência</text></g></g></svg>