<svg class="main-svg" xmlns="http://www.w3.org/2000/svg" xmlns:xlink="http://www.w3.org/1999/xlink" width="650" height="400" style="" viewBox="0 0 650 400"><rect x="0" y="0" width="650" height="400" style="fill: rgb(255, 255, 255); fill-opacity: 1;"/><defs id="defs-3cdff6"><g class="clips"><clipPath id="clip3cdff6xyplot" class="plotclip"><rect width="431" height="296"/></clipPath><clipPath class="axesclip" id="clip3cdff6x"><rect x="64" y="0" width="431" height="400"/></clipPath><clipPath class="axesclip" id="clip3cdff6y"><rect x="0" y="10" width="650" height="296"/></clipPath><clipPath class="axesclip" id="clip3cdff6xy"><rect x="64" y="10" width="431" height="296"/></clipPath></g><g class="gradients"/><g class="patterns"/></defs><g class="bglayer"><rect class="bg" x="64" y="10" width="431" height="296" style="fill: rgb(255, 245, 238); fill-opacity: 1; stroke-width: 0;"/></g><g class="layer-below"><g class="imagelayer"/><g class="shapelayer"/></g><g class="cartesianlayer"><g class="subplot xy"><g class="layer-subplot"><g class="shapelayer"/><g class="imagelayer"/></g><g class="minor-gridlayer"><g class="x"/><g class="y"/></g><g class="gridlayer"><g class="x"><path class="xgrid crisp" transform="translate(85.92,0)" d="M0,10v296" style="stroke: rgb(255, 255, 255); stroke-opacity: 1; stroke-width: 1px;"/><path class="xgrid crisp" transform="translate(107.83,0)" d="M0,10v296" style="stroke: rgb(255, 255, 255); stroke-opacity: 1; stroke-width: 1px;"/><path class="xgrid crisp" transform="translate(129.75,0)" d="M0,10v296" style="stroke: rgb(255, 255, 255); stroke-opacity: 1; stroke-width: 1px;"/><path class="xgrid crisp" transform="translate(151.66,0)" d="M0,10v296" style="stroke: rgb(255, 255, 255); stroke-opacity: 1; stroke-width: 1px;"/><path class="xgrid crisp" transform="translate(173.57999999999998,0)" d="M0,10v296" style="stroke: rgb(255, 255, 255); stroke-opacity: 1; stroke-width: 1px;"/><path class="xgrid crisp" transform="translate(195.49,0)" d="M0,10v296" style="stroke: rgb(255, 255, 255); stroke-opacity: 1; stroke-width: 1px;"/><path class="xgrid crisp" transform="translate(217.41,0)" d="M0,10v296" style="stroke: rgb(255, 255, 255); stroke-opacity: 1; stroke-width: 1px;"/><path class="xgrid crisp" transform="translate(239.32,0)" d="M0,10v296" style="stroke: rgb(255, 255, 255); stroke-opacity: 1; stroke-width: 1px;"/><path class="xgrid crisp" transform="translate(261.24,0)" d="M0,10v296" style="stroke: rgb(255, 255, 255); stroke-opacity: 1; stroke-width: 1px;"/><path class="xgrid crisp" transform="translate(283.15,0)" d="M0,10v296" style="stroke: rgb(255, 255, 255); stroke-opacity: 1; stroke-width: 1px;"/><path class="xgrid crisp" transform="translate(305.07,0)" d="M0,10v296" style="stroke: rgb(255, 255, 255); stroke-opacity: 1; stroke-width: 1px;"/><path class="xgrid crisp" transform="translate(326.98,0)" d="M0,10v296" style="stroke: rgb(255, 255, 255); stroke-opacity: 1; stroke-width: 1px;"/><path class="xgrid crisp" transform="translate(348.9,0)" d="M0,10v296" style="stroke: rgb(255, 255, 255); stroke-opacity: 1; stroke-width: 1px;"/><path class="xgrid crisp" transform="translate(370.81,0)" d="M0,10v296" style="stroke: rgb(255, 255, 255); stroke-opacity: 1; stroke-width: 1px;"/><path class="xgrid crisp" transform="translate(392.73,0)" d="M0,10v296" style="stroke: rgb(255, 255, 255); stroke-opacity: 1; stroke-width: 1px;"/><path class="xgrid crisp" transform="translate(414.64,0)" d="M0,10v296" style="stroke: rgb(255, 255, 255); stroke-opacity: 1; stroke-width: 1px;"/><path class="xgrid crisp" transform="translate(436.56,0)" d="M0,10v296" style="stroke: rgb(255, 255, 255); stroke-opacity: 1; stroke-width: 1px;"/><path class="xgrid crisp" transform="translate(458.47,0)" d="M0,10v296" style="stroke: rgb(255, 255, 255); stroke-opacity: 1; stroke-width: 1px;"/><path class="xgrid crisp" transform="translate(480.39,0)" d="M0,10v296" style="stroke: rgb(255, 255, 255); stroke-opacity: 1; stroke-width: 1px;"/></g><g class="y"><path class="ygrid crisp" transform="translate(0,242.81)" d="M64,0h431" style="stroke: rgb(255, 255, 255); stroke-opacity: 1; stroke-width: 1px;"/><path class="ygrid crisp" transform="translate(0,193.93)" d="M64,0h431" style="stroke: rgb(255, 255, 255); stroke-opacity: 1; stroke-width: 1px;"/><path class="ygrid crisp" transform="translate(0,145.05)" d="M64,0h431" style="stroke: rgb(255, 255, 255); stroke-opacity: 1; stroke-width: 1px;"/><path class="ygrid crisp" transform="translate(0,96.17)" d="M64,0h431" style="stroke: rgb(255, 255, 255); stroke-opacity: 1; stroke-width: 1px;"/><path class="ygrid crisp" transform="translate(0,47.29)" d="M64,0h431" style="stroke: rgb(255, 255, 255); stroke-opacity: 1; stroke-width: 1px;"/></g></g><g class="zerolinelayer"><path class="yzl zl crisp" transform="translate(0,291.69)" d="M64,0h431" style="stroke: rgb(255, 255, 255); stroke-opacity: 1; stroke-width: 2px;"/></g><path class="xlines-below"/><path class="ylines-below"/><g class="overlines-below"/><g class="xaxislayer-below"/><g class="yaxislayer-below"/><g class="overaxes-below"/><g class="plot" transform="translate(64,10)" clip-path="url(#clip3cdff6xyplot)"><g class="scatterlayer mlayer"><g class="trace scatter trace4c96c3" style="stroke-miterlimit: 2; opacity: 1;"><g class="fills"/><g class="errorbars"/><g class="lines"><path class="js-line" d="M0,61.24L7.31,81.77L14.61,78.34L21.92,81.77L29.22,70.52L36.53,79.32L43.83,94.48L51.14,74.43L58.44,75.9L65.75,58.3L73.05,64.17L80.36,116.47L87.66,83.23L94.97,76.39L102.27,104.25L109.58,126.25L116.88,69.06L124.19,23.11L131.49,30.93L138.8,19.69L146.1,52.93L153.41,33.37L160.71,57.33L168.02,96.92L175.32,32.89L182.63,70.52L189.93,56.35L197.24,23.11L204.54,23.11L211.85,51.46L219.15,58.79L226.46,21.15L233.76,33.86L241.07,37.29L248.37,33.37L255.68,102.3L262.98,80.3L270.29,78.34L277.59,65.15L284.9,73.95L292.2,42.66L299.51,83.23L306.81,71.99L314.12,37.77L321.42,81.77L328.73,60.75L336.03,72.97L343.34,97.9L350.64,39.73L357.95,53.9L365.25,44.13L372.56,14.8L379.86,36.31L387.17,48.04L394.47,61.73L401.78,34.84L409.08,51.46L416.39,55.37L423.69,48.53L431,97.9" style="vector-effect: none; fill: none; stroke: rgb(156, 15, 72); stroke-opacity: 1; stroke-width: 2px; opacity: 1;"/></g><g class="points"/><g class="text"/></g><g class="trace scatter trace038c11" style="stroke-miterlimit: 2; opacity: 1;"><g class="fills"/><g class="errorbars"/><g class="lines"><path class="js-line" d="M0,150.69L7.31,148.24L14.61,128.2L21.92,133.09L29.22,152.15L36.53,133.09L43.83,149.71L51.14,148.24L58.44,131.14L65.75,125.27L73.05,140.91L87.66,154.11L94.97,158.51L102.27,184.9L109.58,226.45L116.88,202.99L124.19,164.86L131.49,140.42L138.8,145.8L146.1,153.62L153.41,141.4L160.71,156.55L168.02,154.11L175.32,158.02L182.63,175.13L189.93,180.51L197.24,184.9L204.54,156.55L211.85,169.75L219.15,171.22L226.46,158.51L233.76,170.24L241.07,156.07L248.37,156.55L255.68,180.99L262.98,174.64L270.29,175.62L277.59,175.13L284.9,177.08L299.51,169.26L306.81,168.29L314.12,159.98L321.42,163.4L328.73,144.33L336.03,158.51L343.34,182.46L350.64,151.18L357.95,176.6L365.25,157.53L372.56,158.02L379.86,144.33L387.17,153.13L394.47,156.55L401.78,148.73L409.08,142.38L416.39,129.18L423.69,152.15L431,176.11" style="vector-effect: none; fill: none; stroke: rgb(111, 207, 151); stroke-opacity: 1; stroke-width: 2px; opacity: 1;"/></g><g class="points"/><g class="text"/></g><g class="trace scatter traced468fb" style="stroke-miterlimit: 2; opacity: 1;"><g class="fills"/><g class="errorbars"/><g class="lines"><path class="js-line" d="M0,275.33L7.31,276.31L14.61,273.87L21.92,279.73L29.22,272.4L36.53,276.8L43.83,274.36L51.14,272.89L58.44,268.49L65.75,267.51L73.05,275.33L80.36,271.91L87.66,272.89L94.97,272.4L102.27,273.38L109.58,281.2L116.88,278.76L124.19,271.42L131.49,273.38L138.8,269.96L146.1,269.47L153.41,265.56L160.71,265.56L168.02,273.87L175.32,268.49L189.93,275.82L197.24,265.56L204.54,264.09L211.85,273.87L233.76,270.94L241.07,264.09L248.37,268.49L255.68,270.94L262.98,272.89L270.29,269.47L277.59,268.98L284.9,270.45L299.51,272.89L306.81,275.33L314.12,267.02L321.42,263.6L328.73,266.05L336.03,269.96L343.34,269.96L350.64,266.54L357.95,265.07L365.25,264.58L372.56,273.38L379.86,264.09L387.17,260.67L394.47,264.58L401.78,266.54L409.08,261.65L416.39,262.14L423.69,274.85L431,268" style="vector-effect: none; fill: none; stroke: rgb(114, 39, 112); stroke-opacity: 1; stroke-width: 2px; opacity: 1;"/></g><g class="points"/><g class="text"/></g><g class="trace scatter tracefd8ea7" style="stroke-miterlimit: 2; opacity: 1;"><g class="fills"/><g class="errorbars"/><g class="lines"><path class="js-line" d="M0,270.45L7.31,273.38L14.61,266.05L21.92,268L29.22,268L36.53,264.58L43.83,265.07L51.14,269.47L58.44,268L65.75,269.96L73.05,269.96L80.36,271.42L87.66,267.51L94.97,266.54L102.27,271.42L109.58,279.24L116.88,272.89L131.49,269.47L138.8,267.51L146.1,264.58L153.41,267.51L160.71,266.54L168.02,271.91L175.32,266.54L182.63,268.49L189.93,270.94L197.24,266.54L204.54,265.07L211.85,267.02L219.15,264.58L226.46,260.67L233.76,264.09L241.07,265.56L248.37,258.71L255.68,261.16L262.98,268L270.29,269.47L277.59,268L284.9,268.49L292.2,265.07L299.51,263.11L306.81,262.14L314.12,253.83L321.42,269.47L328.73,264.09L336.03,259.69L343.34,266.05L350.64,267.51L357.95,262.63L365.25,259.2L372.56,256.76L379.86,258.23L387.17,256.76L394.47,265.56L401.78,265.07L409.08,253.83L416.39,266.05L423.69,265.56L431,269.96" style="vector-effect: none; fill: none; stroke: rgb(234, 95, 45); stroke-opacity: 1; stroke-width: 2px; opacity: 1;"/></g><g class="points"/><g class="text"/></g><g class="trace scatter trace83e115" style="stroke-miterlimit: 2; opacity: 1;"><g class="fills"/><g class="errorbars"/><g class="lines"><path class="js-line" d="M7.31,281.2L14.61,280.71L21.92,278.27L29.22,274.85L36.53,278.27L43.83,280.71L51.14,279.73L58.44,279.73L65.75,277.78L73.05,281.2L80.36,280.22L87.66,279.24L94.97,281.2L109.58,279.73L116.88,281.2L124.19,276.31L131.49,275.33L138.8,273.38L146.1,275.33L160.71,275.33L168.02,274.36L175.32,279.73L182.63,280.22L197.24,280.71L204.54,278.76L211.85,276.31L219.15,275.33L226.46,264.09L233.76,268L241.07,266.54L248.37,266.05L255.68,272.89L262.98,269.96L277.59,268L284.9,272.4L292.2,263.11L299.51,268.49L306.81,271.91L314.12,264.09L321.42,267.02L328.73,260.67L336.03,258.71L343.34,270.45L357.95,261.16L365.25,257.25L372.56,260.18L379.86,259.69L387.17,261.16L394.47,261.65L409.08,271.91L416.39,269.96L423.69,268.49L431,273.87" style="vector-effect: none; fill: none; stroke: rgb(111, 149, 255); stroke-opacity: 1; stroke-width: 2px; opacity: 1;"/></g><g class="points"/><g class="text"/></g></g></g><g class="overplot"/><path class="xlines-above crisp" d="M0,0" style="fill: none;"/><path class="ylines-above crisp" d="M0,0" style="fill: none;"/><g class="overlines-above"/><g class="xaxislayer-above"><g class="xtick"><text text-anchor="start" x="0" y="322" transform="translate(64,0) rotate(90,0,314.5)" style="font-family: 'Open Sans', verdana, arial, sans-serif; font-size: 15px; fill: rgb(42, 63, 95); fill-opacity: 1; white-space: pre; opacity: 1;">Jan/19</text></g><g class="xtick"><text text-anchor="start" x="0" y="322" transform="translate(85.92,0) rotate(90,0,314.5)" style="font-family: 'Open Sans', verdana, arial, sans-serif; font-size: 15px; fill: rgb(42, 63, 95); fill-opacity: 1; white-space: pre; opacity: 1;">Apr/19</text></g><g class="xtick"><text text-anchor="start" x="0" y="322" transform="translate(107.83,0) rotate(90,0,314.5)" style="font-family: 'Open Sans', verdana, arial, sans-serif; font-size: 15px; fill: rgb(42, 63, 95); fill-opacity: 1; white-space: pre; opacity: 1;">Jul/19</text></g><g class="xtick"><text text-anchor="start" x="0" y="322" transform="translate(129.75,0) rotate(90,0,314.5)" style="font-family: 'Open Sans', verdana, arial, sans-serif; font-size: 15px; fill: rgb(42, 63, 95); fill-opacity: 1; white-space: pre; opacity: 1;">Oct/19</text></g><g class="xtick"><text text-anchor="start" x="0" y="322" transform="translate(151.66,0) rotate(90,0,314.5)" style="font-family: 'Open Sans', verdana, arial, sans-serif; font-size: 15px; fill: rgb(42, 63, 95); fill-opacity: 1; white-space: pre; opacity: 1;">Jan/20</text></g><g class="xtick"><text text-anchor="start" x="0" y="322" transform="translate(173.57999999999998,0) rotate(90,0,314.5)" style="font-family: 'Open Sans', verdana, arial, sans-serif; font-size: 15px; fill: rgb(42, 63, 95); fill-opacity: 1; white-space: pre; opacity: 1;">Apr/20</text></g><g class="xtick"><text text-anchor="start" x="0" y="322" transform="translate(195.49,0) rotate(90,0,314.5)" style="font-family: 'Open Sans', verdana, arial, sans-serif; font-size: 15px; fill: rgb(42, 63, 95); fill-opacity: 1; white-space: pre; opacity: 1;">Jul/20</text></g><g class="xtick"><text text-anchor="start" x="0" y="322" transform="translate(217.41,0) rotate(90,0,314.5)" style="font-family: 'Open Sans', verdana, arial, sans-serif; font-size: 15px; fill: rgb(42, 63, 95); fill-opacity: 1; white-space: pre; opacity: 1;">Oct/20</text></g><g class="xtick"><text text-anchor="start" x="0" y="322" transform="translate(239.32,0) rotate(90,0,314.5)" style="font-family: 'Open Sans', verdana, arial, sans-serif; font-size: 15px; fill: rgb(42, 63, 95); fill-opacity: 1; white-space: pre; opacity: 1;">Jan/21</text></g><g class="xtick"><text text-anchor="start" x="0" y="322" transform="translate(261.24,0) rotate(90,0,314.5)" style="font-family: 'Open Sans', verdana, arial, sans-serif; font-size: 15px; fill: rgb(42, 63, 95); fill-opacity: 1; white-space: pre; opacity: 1;">Apr/21</text></g><g class="xtick"><text text-anchor="start" x="0" y="322" transform="translate(283.15,0) rotate(90,0,314.5)" style="font-family: 'Open Sans', verdana, arial, sans-serif; font-size: 15px; fill: rgb(42, 63, 95); fill-opacity: 1; white-space: pre; opacity: 1;">Jul/21</text></g><g class="xtick"><text text-anchor="start" x="0" y="322" transform="translate(305.07,0) rotate(90,0,314.5)" style="font-family: 'Open Sans', verdana, arial, sans-serif; font-size: 15px; fill: rgb(42, 63, 95); fill-opacity: 1; white-space: pre; opacity: 1;">Oct/21</text></g><g class="xtick"><text text-anchor="start" x="0" y="322" transform="translate(326.98,0) rotate(90,0,314.5)" style="font-family: 'Open Sans', verdana, arial, sans-serif; font-size: 15px; fill: rgb(42, 63, 95); fill-opacity: 1; white-space: pre; opacity: 1;">Jan/22</text></g><g class="xtick"><text text-anchor="start" x="0" y="322" transform="translate(348.9,0) rotate(90,0,314.5)" style="font-family: 'Open Sans', verdana, arial, sans-serif; font-size: 15px; fill: rgb(42, 63, 95); fill-opacity: 1; white-space: pre; opacity: 1;">Apr/22</text></g><g class="xtick"><text text-anchor="start" x="0" y="322" transform="translate(370.81,0) rotate(90,0,314.5)" style="font-family: 'Open Sans', verdana, arial, sans-serif; font-size: 15px; fill: rgb(42, 63, 95); fill-opacity: 1; white-space: pre; opacity: 1;">Jul/22</text></g><g class="xtick"><text text-anchor="start" x="0" y="322" transform="translate(392.73,0) rotate(90,0,314.5)" style="font-family: 'Open Sans', verdana, arial, sans-serif; font-size: 15px; fill: rgb(42, 63, 95); fill-opacity: 1; white-space: pre; opacity: 1;">Oct/22</text></g><g class="xtick"><text text-anchor="start" x="0" y="322" transform="translate(414.64,0) rotate(90,0,314.5)" style="font-family: 'Open Sans', verdana, arial, sans-serif; font-size: 15px; fill: rgb(42, 63, 95); fill-opacity: 1; white-space: pre; opacity: 1;">Jan/23</text></g><g class="xtick"><text text-anchor="start" x="0" y="322" transform="translate(436.56,0) rotate(90,0,314.5)" style="font-family: 'Open Sans', verdana, arial, sans-serif; font-size: 15px; fill: rgb(42, 63, 95); fill-opacity: 1; white-space: pre; opacity: 1;">Apr/23</text></g><g class="xtick"><text text-anchor="start" x="0" y="322" transform="translate(458.47,0) rotate(90,0,314.5)" style="font-family: 'Open Sans', verdana, arial, sans-serif; font-size: 15px; fill: rgb(42, 63, 95); fill-opacity: 1; white-space: pre; opacity: 1;">Jul/23</text></g><g class="xtick"><text text-anchor="start" x="0" y="322" transform="translate(480.39,0) rotate(90,0,314.5)" style="font-family: 'Open Sans', verdana, arial, sans-serif; font-size: 15px; fill: rgb(42, 63, 95); fill-opacity: 1; white-space: pre; opacity: 1;">Oct/23</text></g></g><g class="yaxislayer-above"><g class="ytick"><text text-anchor="end" x="63" y="5.25" transform="translate(0,291.69)" style="font-family: 'Open Sans', verdana, arial, sans-serif; font-size: 15px; fill: rgb(42, 63, 95); fill-opacity: 1; white-space: pre; opacity: 1;">0</text></g><g class="ytick"><text text-anchor="end" x="63" y="5.25" style="font-family: 'Open Sans', verdana, arial, sans-serif; font-size: 15px; fill: rgb(42, 63, 95); fill-opacity: 1; white-space: pre; opacity: 1;" transform="translate(0,242.81)">100</text></g><g class="ytick"><text text-anchor="end" x="63" y="5.25" style="font-family: 'Open Sans', verdana, arial, sans-serif; font-size: 15px; fill: rgb(42, 63, 95); fill-opacity: 1; white-space: pre; opacity: 1;" transform="translate(0,193.93)">200</text></g><g class="ytick"><text text-anchor="end" x="63" y="5.25" style="font-family: 'Open Sans', verdana, arial, sans-serif; font-size: 15px; fill: rgb(42, 63, 95); fill-opacity: 1; white-space: pre; opacity: 1;" transform="translate(0,145.05)">300</text></g><g class="ytick"><text text-anchor="end" x="63" y="5.25" style="font-family: 'Open Sans', verdana, arial, sans-serif; font-size: 15px; fill: rgb(42, 63, 95); fill-opacity: 1; white-space: pre; opacity: 1;" transform="translate(0,96.17)">400</text></g><g class="ytick"><text text-anchor="end" x="63" y="5.25" style="font-family: 'Open Sans', verdana, arial, sans-serif; font-size: 15px; fill: rgb(42, 63, 95); fill-opacity: 1; white-space: pre; opacity: 1;" transform="translate(0,47.29)">500</text></g></g><g class="overaxes-above"/></g></g><g class="polarlayer"/><g class="smithlayer"/><g class="ternarylayer"/><g class="geolayer"/><g class="funnelarealayer"/><g class="pielayer"/><g class="iciclelayer"/><g class="treemaplayer"/><g class="sunburstlayer"/><g class="glimages"/><defs id="topdefs-3cdff6"><g class="clips"/><clipPath id="legend3cdff6"><rect width="136" height="146" x="0" y="0"/></clipPath></defs><g class="layer-above"><g class="imagelayer"/><g class="shapelayer"/></g><g class="infolayer"><g class="legend" pointer-events="all" transform="translate(503.62,10)"><rect class="bg" shape-rendering="crispEdges" style="stroke: rgb(68, 68, 68); stroke-opacity: 1; fill: rgb(255, 245, 238); fill-opacity: 1; stroke-width: 0px;" width="136" height="146" x="0" y="0"/><g class="scrollbox" transform="" clip-path="url(#legend3cdff6)"><text class="legendtitletext" text-anchor="start" x="2" y="23.400000000000002" style="font-family: 'Open Sans', verdana, arial, sans-serif; font-size: 18px; fill: rgb(42, 63, 95); fill-opacity: 1; white-space: pre;">Crimes</text><g class="groups" transform=""><g class="traces" transform="translate(0,39.650000000000006)" style="opacity: 1;"><text class="legendtext" text-anchor="start" x="40" y="5.85" style="font-family: 'Open Sans', verdana, arial, sans-serif; font-size: 15px; fill: rgb(42, 63, 95); fill-opacity: 1; white-space: pre;">Threat</text><g class="layers" style="opacity: 1;"><g class="legendfill"/><g class="legendlines"><path class="js-line" d="M5,0h30" style="fill: none; stroke: rgb(156, 15, 72); stroke-opacity: 1; stroke-width: 2px;"/></g><g class="legendsymbols"><g class="legendpoints"/></g></g><rect class="legendtoggle" x="0" y="-11.25" width="130.890625" height="22.5" style="fill: rgb(0, 0, 0); fill-opacity: 0;"/></g></g><g class="groups" transform=""><g class="traces" transform="translate(0,62.150000000000006)" style="opacity: 1;"><text class="legendtext" text-anchor="start" x="40" y="5.85" style="font-family: 'Open Sans', verdana, arial, sans-serif; font-size: 15px; fill: rgb(42, 63, 95); fill-opacity: 1; white-space: pre;">Bod. inj.</text><g class="layers" style="opacity: 1;"><g class="legendfill"/><g class="legendlines"><path class="js-line" d="M5,0h30" style="fill: none; stroke: rgb(111, 207, 151); stroke-opacity: 1; stroke-width: 2px;"/></g><g class="legendsymbols"><g class="legendpoints"/></g></g><rect class="legendtoggle" x="0" y="-11.25" width="130.890625" height="22.5" style="fill: rgb(0, 0, 0); fill-opacity: 0;"/></g></g><g class="groups" transform=""><g class="traces" transform="translate(0,84.65)" style="opacity: 1;"><text class="legendtext" text-anchor="start" x="40" y="5.85" style="font-family: 'Open Sans', verdana, arial, sans-serif; font-size: 15px; fill: rgb(42, 63, 95); fill-opacity: 1; white-space: pre;">Sex. har.</text><g class="layers" style="opacity: 1;"><g class="legendfill"/><g class="legendlines"><path class="js-line" d="M5,0h30" style="fill: none; stroke: rgb(114, 39, 112); stroke-opacity: 1; stroke-width: 2px;"/></g><g class="legendsymbols"><g class="legendpoints"/></g></g><rect class="legendtoggle" x="0" y="-11.25" width="130.890625" height="22.5" style="fill: rgb(0, 0, 0); fill-opacity: 0;"/></g></g><g class="groups" transform=""><g class="traces" transform="translate(0,107.15)" style="opacity: 1;"><text class="legendtext" text-anchor="start" x="40" y="5.85" style="font-family: 'Open Sans', verdana, arial, sans-serif; font-size: 15px; fill: rgb(42, 63, 95); fill-opacity: 1; white-space: pre;">Rape of vuln.</text><g class="layers" style="opacity: 1;"><g class="legendfill"/><g class="legendlines"><path class="js-line" d="M5,0h30" style="fill: none; stroke: rgb(234, 95, 45); stroke-opacity: 1; stroke-width: 2px;"/></g><g class="legendsymbols"><g class="legendpoints"/></g></g><rect class="legendtoggle" x="0" y="-11.25" width="130.890625" height="22.5" style="fill: rgb(0, 0, 0); fill-opacity: 0;"/></g></g><g class="groups" transform=""><g class="traces" transform="translate(0,129.65)" style="opacity: 1;"><text class="legendtext" text-anchor="start" x="40" y="5.85" style="font-family: 'Open Sans', verdana, arial, sans-serif; font-size: 15px; fill: rgb(42, 63, 95); fill-opacity: 1; white-space: pre;">Psych. viol.</text><g class="layers" style="opacity: 1;"><g class="legendfill"/><g class="legendlines"><path class="js-line" d="M5,0h30" style="fill: none; stroke: rgb(111, 149, 255); stroke-opacity: 1; stroke-width: 2px;"/></g><g class="legendsymbols"><g class="legendpoints"/></g></g><rect class="legendtoggle" x="0" y="-11.25" width="130.890625" height="22.5" style="fill: rgb(0, 0, 0); fill-opacity: 0;"/></g></g></g><rect class="scrollbar" rx="20" ry="3" width="0" height="0" style="fill: rgb(128, 139, 164); fill-opacity: 1;" x="0" y="0"/></g><g class="g-gtitle"/><g class="g-xtitle"><text class="xtitle" x="279.5" y="389.50625" text-anchor="middle" style="font-family: 'Open Sans', verdana, arial, sans-serif; font-size: 18px; fill: rgb(42, 63, 95); opacity: 1; font-weight: normal; white-space: pre;">Month/Year</text></g><g class="g-ytitle"/></g></svg>