<svg class="main-svg" xmlns="http://www.w3.org/2000/svg" xmlns:xlink="http://www.w3.org/1999/xlink" width="650" height="400" style="" viewBox="0 0 650 400"><rect x="0" y="0" width="650" height="400" style="fill: rgb(255, 255, 255); fill-opacity: 1;"/><defs id="defs-9d3eb3"><g class="clips"><clipPath id="clip9d3eb3xyplot" class="plotclip"><rect width="439" height="286"/></clipPath><clipPath class="axesclip" id="clip9d3eb3x"><rect x="56" y="0" width="439" height="400"/></clipPath><clipPath class="axesclip" id="clip9d3eb3y"><rect x="0" y="20" width="650" height="286"/></clipPath><clipPath class="axesclip" id="clip9d3eb3xy"><rect x="56" y="20" width="439" height="286"/></clipPath></g><g class="gradients"/><g class="patterns"/></defs><g class="bglayer"><rect class="bg" x="56" y="20" width="439" height="286" style="fill: rgb(255, 245, 238); fill-opacity: 1; stroke-width: 0;"/></g><g class="layer-below"><g class="imagelayer"/><g class="shapelayer"/></g><g class="cartesianlayer"><g class="subplot xy"><g class="layer-subplot"><g class="shapelayer"/><g class="imagelayer"/></g><g class="minor-gridlayer"><g class="x"/><g class="y"/></g><g class="gridlayer"><g class="x"><path class="xgrid crisp" transform="translate(78.32,0)" d="M0,20v286" style="stroke: rgb(255, 255, 255); stroke-opacity: 1; stroke-width: 1px;"/><path class="xgrid crisp" transform="translate(100.64,0)" d="M0,20v286" style="stroke: rgb(255, 255, 255); stroke-opacity: 1; stroke-width: 1px;"/><path class="xgrid crisp" transform="translate(122.97,0)" d="M0,20v286" style="stroke: rgb(255, 255, 255); stroke-opacity: 1; stroke-width: 1px;"/><path class="xgrid crisp" transform="translate(145.29000000000002,0)" d="M0,20v286" style="stroke: rgb(255, 255, 255); stroke-opacity: 1; stroke-width: 1px;"/><path class="xgrid crisp" transform="translate(167.61,0)" d="M0,20v286" style="stroke: rgb(255, 255, 255); stroke-opacity: 1; stroke-width: 1px;"/><path class="xgrid crisp" transform="translate(189.93,0)" d="M0,20v286" style="stroke: rgb(255, 255, 255); stroke-opacity: 1; stroke-width: 1px;"/><path class="xgrid crisp" transform="translate(212.25,0)" d="M0,20v286" style="stroke: rgb(255, 255, 255); stroke-opacity: 1; stroke-width: 1px;"/><path class="xgrid crisp" transform="translate(234.58,0)" d="M0,20v286" style="stroke: rgb(255, 255, 255); stroke-opacity: 1; stroke-width: 1px;"/><path class="xgrid crisp" transform="translate(256.9,0)" d="M0,20v286" style="stroke: rgb(255, 255, 255); stroke-opacity: 1; stroke-width: 1px;"/><path class="xgrid crisp" transform="translate(279.22,0)" d="M0,20v286" style="stroke: rgb(255, 255, 255); stroke-opacity: 1; stroke-width: 1px;"/><path class="xgrid crisp" transform="translate(301.53999999999996,0)" d="M0,20v286" style="stroke: rgb(255, 255, 255); stroke-opacity: 1; stroke-width: 1px;"/><path class="xgrid crisp" transform="translate(323.86,0)" d="M0,20v286" style="stroke: rgb(255, 255, 255); stroke-opacity: 1; stroke-width: 1px;"/><path class="xgrid crisp" transform="translate(346.19,0)" d="M0,20v286" style="stroke: rgb(255, 255, 255); stroke-opacity: 1; stroke-width: 1px;"/><path class="xgrid crisp" transform="translate(368.51,0)" d="M0,20v286" style="stroke: rgb(255, 255, 255); stroke-opacity: 1; stroke-width: 1px;"/><path class="xgrid crisp" transform="translate(390.83,0)" d="M0,20v286" style="stroke: rgb(255, 255, 255); stroke-opacity: 1; stroke-width: 1px;"/><path class="xgrid crisp" transform="translate(413.15,0)" d="M0,20v286" style="stroke: rgb(255, 255, 255); stroke-opacity: 1; stroke-width: 1px;"/><path class="xgrid crisp" transform="translate(435.47,0)" d="M0,20v286" style="stroke: rgb(255, 255, 255); stroke-opacity: 1; stroke-width: 1px;"/><path class="xgrid crisp" transform="translate(457.8,0)" d="M0,20v286" style="stroke: rgb(255, 255, 255); stroke-opacity: 1; stroke-width: 1px;"/><path class="xgrid crisp" transform="translate(480.12,0)" d="M0,20v286" style="stroke: rgb(255, 255, 255); stroke-opacity: 1; stroke-width: 1px;"/></g><g class="y"><path class="ygrid crisp" transform="translate(0,250.33)" d="M56,0h439" style="stroke: rgb(255, 255, 255); stroke-opacity: 1; stroke-width: 1px;"/><path class="ygrid crisp" transform="translate(0,204.37)" d="M56,0h439" style="stroke: rgb(255, 255, 255); stroke-opacity: 1; stroke-width: 1px;"/><path class="ygrid crisp" transform="translate(0,158.4)" d="M56,0h439" style="stroke: rgb(255, 255, 255); stroke-opacity: 1; stroke-width: 1px;"/><path class="ygrid crisp" transform="translate(0,112.44)" d="M56,0h439" style="stroke: rgb(255, 255, 255); stroke-opacity: 1; stroke-width: 1px;"/><path class="ygrid crisp" transform="translate(0,66.47)" d="M56,0h439" style="stroke: rgb(255, 255, 255); stroke-opacity: 1; stroke-width: 1px;"/></g></g><g class="zerolinelayer"><path class="yzl zl crisp" transform="translate(0,296.3)" d="M56,0h439" style="stroke: rgb(255, 255, 255); stroke-opacity: 1; stroke-width: 2px;"/></g><path class="xlines-below"/><path class="ylines-below"/><g class="overlines-below"/><g class="xaxislayer-below"/><g class="yaxislayer-below"/><g class="overaxes-below"/><g class="plot" transform="translate(56,20)" clip-path="url(#clip9d3eb3xyplot)"><g class="scatterlayer mlayer"><g class="trace scatter trace605d67" style="stroke-miterlimit: 2; opacity: 1;"><g class="fills"/><g class="errorbars"/><g class="lines"><path class="js-line" d="M0,216.54L7.44,225.74L14.88,202.75L22.32,257.91L29.76,188.96L37.2,230.33L44.64,207.35L52.08,193.56L59.53,152.19L66.97,143L74.41,216.54L81.85,184.37L89.29,193.56L96.73,188.96L104.17,198.16L111.61,271.7L119.05,248.72L126.49,179.77L133.93,198.16L141.37,165.98L148.81,161.39L156.25,124.61L163.69,124.61L171.14,202.75L178.58,152.19L186.02,184.37L193.46,221.14L200.9,124.61L208.34,110.82L215.78,202.75L223.22,193.56L238.1,175.17L245.54,110.82L252.98,152.19L260.42,175.17L267.86,193.56L275.31,161.39L282.75,156.79L290.19,170.58L297.63,184.37L305.07,193.56L312.51,216.54L319.95,138.4L327.39,106.23L334.83,129.21L342.27,165.98L349.71,165.98L357.15,133.81L364.59,120.02L372.03,115.42L379.47,198.16L386.92,110.82L394.36,78.65L401.8,115.42L409.24,133.81L416.68,87.84L424.12,92.44L431.56,211.95L439,147.6" style="vector-effect: none; fill: none; stroke: rgb(156, 15, 72); stroke-opacity: 1; stroke-width: 2px; opacity: 1;"/></g><g class="points"/><g class="text"/></g><g class="trace scatter trace777e98" style="stroke-miterlimit: 2; opacity: 1;"><g class="fills"/><g class="errorbars"/><g class="lines"><path class="js-line" d="M0,170.58L7.44,198.16L14.88,129.21L22.32,147.6L29.76,147.6L37.2,115.42L44.64,120.02L52.08,161.39L59.53,147.6L66.97,165.98L74.41,165.98L81.85,179.77L89.29,143L96.73,133.81L104.17,179.77L111.61,253.31L119.05,193.56L126.49,179.77L133.93,161.39L141.37,143L148.81,115.42L156.25,143L163.69,133.81L171.14,184.37L178.58,133.81L186.02,152.19L193.46,175.17L200.9,133.81L208.34,120.02L215.78,138.4L223.22,115.42L230.66,78.65L238.1,110.82L245.54,124.61L252.98,60.26L260.42,83.25L267.86,147.6L275.31,161.39L282.75,147.6L290.19,152.19L297.63,120.02L305.07,101.63L312.51,92.44L319.95,14.3L327.39,161.39L334.83,110.82L342.27,69.46L349.71,129.21L357.15,143L364.59,97.04L372.03,64.86L379.47,41.88L386.92,55.67L394.36,41.88L401.8,124.61L409.24,120.02L416.68,14.3L424.12,129.21L431.56,124.61L439,165.98" style="vector-effect: none; fill: none; stroke: rgb(111, 207, 151); stroke-opacity: 1; stroke-width: 2px; opacity: 1;"/></g><g class="points"/><g class="text"/></g><g class="trace scatter trace404d50" style="stroke-miterlimit: 2; opacity: 1;"><g class="fills"/><g class="errorbars"/><g class="lines"><path class="js-line" d="M7.44,271.7L14.88,267.1L22.32,244.12L29.76,211.95L37.2,244.12L44.64,267.1L52.08,257.91L59.53,257.91L66.97,239.52L74.41,271.7L81.85,262.51L89.29,253.31L96.73,271.7L104.17,262.51L111.61,257.91L119.05,271.7L126.49,225.74L133.93,216.54L141.37,198.16L148.81,216.54L156.25,216.54L163.69,216.54L171.14,207.35L178.58,257.91L186.02,262.51L193.46,262.51L200.9,267.1L208.34,248.72L215.78,225.74L223.22,216.54L230.66,110.82L238.1,147.6L245.54,133.81L252.98,129.21L260.42,193.56L267.86,165.98L275.31,156.79L282.75,147.6L290.19,188.96L297.63,101.63L305.07,152.19L312.51,184.37L319.95,110.82L327.39,138.4L334.83,78.65L342.27,60.26L349.71,170.58L364.59,83.25L372.03,46.47L379.47,74.05L386.92,69.46L394.36,83.25L401.8,87.84L416.68,184.37L424.12,165.98L431.56,152.19L439,202.75" style="vector-effect: none; fill: none; stroke: rgb(114, 39, 112); stroke-opacity: 1; stroke-width: 2px; opacity: 1;"/></g><g class="points"/><g class="text"/></g></g></g><g class="overplot"/><path class="xlines-above crisp" d="M0,0" style="fill: none;"/><path class="ylines-above crisp" d="M0,0" style="fill: none;"/><g class="overlines-above"/><g class="xaxislayer-above"><g class="xtick"><text text-anchor="start" x="0" y="322" transform="translate(56,0) rotate(90,0,314.5)" style="font-family: 'Open Sans', verdana, arial, sans-serif; font-size: 15px; fill: rgb(42, 63, 95); fill-opacity: 1; white-space: pre; opacity: 1;">Jan/19</text></g><g class="xtick"><text text-anchor="start" x="0" y="322" transform="translate(78.32,0) rotate(90,0,314.5)" style="font-family: 'Open Sans', verdana, arial, sans-serif; font-size: 15px; fill: rgb(42, 63, 95); fill-opacity: 1; white-space: pre; opacity: 1;">Apr/19</text></g><g class="xtick"><text text-anchor="start" x="0" y="322" transform="translate(100.64,0) rotate(90,0,314.5)" style="font-family: 'Open Sans', verdana, arial, sans-serif; font-size: 15px; fill: rgb(42, 63, 95); fill-opacity: 1; white-space: pre; opacity: 1;">Jul/19</text></g><g class="xtick"><text text-anchor="start" x="0" y="322" transform="translate(122.97,0) rotate(90,0,314.5)" style="font-family: 'Open Sans', verdana, arial, sans-serif; font-size: 15px; fill: rgb(42, 63, 95); fill-opacity: 1; white-space: pre; opacity: 1;">Oct/19</text></g><g class="xtick"><text text-anchor="start" x="0" y="322" transform="translate(145.29000000000002,0) rotate(90,0,314.5)" style="font-family: 'Open Sans', verdana, arial, sans-serif; font-size: 15px; fill: rgb(42, 63, 95); fill-opacity: 1; white-space: pre; opacity: 1;">Jan/20</text></g><g class="xtick"><text text-anchor="start" x="0" y="322" transform="translate(167.61,0) rotate(90,0,314.5)" style="font-family: 'Open Sans', verdana, arial, sans-serif; font-size: 15px; fill: rgb(42, 63, 95); fill-opacity: 1; white-space: pre; opacity: 1;">Apr/20</text></g><g class="xtick"><text text-anchor="start" x="0" y="322" transform="translate(189.93,0) rotate(90,0,314.5)" style="font-family: 'Open Sans', verdana, arial, sans-serif; font-size: 15px; fill: rgb(42, 63, 95); fill-opacity: 1; white-space: pre; opacity: 1;">Jul/20</text></g><g class="xtick"><text text-anchor="start" x="0" y="322" transform="translate(212.25,0) rotate(90,0,314.5)" style="font-family: 'Open Sans', verdana, arial, sans-serif; font-size: 15px; fill: rgb(42, 63, 95); fill-opacity: 1; white-space: pre; opacity: 1;">Oct/20</text></g><g class="xtick"><text text-anchor="start" x="0" y="322" transform="translate(234.58,0) rotate(90,0,314.5)" style="font-family: 'Open Sans', verdana, arial, sans-serif; font-size: 15px; fill: rgb(42, 63, 95); fill-opacity: 1; white-space: pre; opacity: 1;">Jan/21</text></g><g class="xtick"><text text-anchor="start" x="0" y="322" transform="translate(256.9,0) rotate(90,0,314.5)" style="font-family: 'Open Sans', verdana, arial, sans-serif; font-size: 15px; fill: rgb(42, 63, 95); fill-opacity: 1; white-space: pre; opacity: 1;">Apr/21</text></g><g class="xtick"><text text-anchor="start" x="0" y="322" transform="translate(279.22,0) rotate(90,0,314.5)" style="font-family: 'Open Sans', verdana, arial, sans-serif; font-size: 15px; fill: rgb(42, 63, 95); fill-opacity: 1; white-space: pre; opacity: 1;">Jul/21</text></g><g class="xtick"><text text-anchor="start" x="0" y="322" transform="translate(301.53999999999996,0) rotate(90,0,314.5)" style="font-family: 'Open Sans', verdana, arial, sans-serif; font-size: 15px; fill: rgb(42, 63, 95); fill-opacity: 1; white-space: pre; opacity: 1;">Oct/21</text></g><g class="xtick"><text text-anchor="start" x="0" y="322" transform="translate(323.86,0) rotate(90,0,314.5)" style="font-family: 'Open Sans', verdana, arial, sans-serif; font-size: 15px; fill: rgb(42, 63, 95); fill-opacity: 1; white-space: pre; opacity: 1;">Jan/22</text></g><g class="xtick"><text text-anchor="start" x="0" y="322" transform="translate(346.19,0) rotate(90,0,314.5)" style="font-family: 'Open Sans', verdana, arial, sans-serif; font-size: 15px; fill: rgb(42, 63, 95); fill-opacity: 1; white-space: pre; opacity: 1;">Apr/22</text></g><g class="xtick"><text text-anchor="start" x="0" y="322" transform="translate(368.51,0) rotate(90,0,314.5)" style="font-family: 'Open Sans', verdana, arial, sans-serif; font-size: 15px; fill: rgb(42, 63, 95); fill-opacity: 1; white-space: pre; opacity: 1;">Jul/22</text></g><g class="xtick"><text text-anchor="start" x="0" y="322" transform="translate(390.83,0) rotate(90,0,314.5)" style="font-family: 'Open Sans', verdana, arial, sans-serif; font-size: 15px; fill: rgb(42, 63, 95); fill-opacity: 1; white-space: pre; opacity: 1;">Oct/22</text></g><g class="xtick"><text text-anchor="start" x="0" y="322" transform="translate(413.15,0) rotate(90,0,314.5)" style="font-family: 'Open Sans', verdana, arial, sans-serif; font-size: 15px; fill: rgb(42, 63, 95); fill-opacity: 1; white-space: pre; opacity: 1;">Jan/23</text></g><g class="xtick"><text text-anchor="start" x="0" y="322" transform="translate(435.47,0) rotate(90,0,314.5)" style="font-family: 'Open Sans', verdana, arial, sans-serif; font-size: 15px; fill: rgb(42, 63, 95); fill-opacity: 1; white-space: pre; opacity: 1;">Apr/23</text></g><g class="xtick"><text text-anchor="start" x="0" y="322" transform="translate(457.8,0) rotate(90,0,314.5)" style="font-family: 'Open Sans', verdana, arial, sans-serif; font-size: 15px; fill: rgb(42, 63, 95); fill-opacity: 1; white-space: pre; opacity: 1;">Jul/23</text></g><g class="xtick"><text text-anchor="start" x="0" y="322" transform="translate(480.12,0) rotate(90,0,314.5)" style="font-family: 'Open Sans', verdana, arial, sans-serif; font-size: 15px; fill: rgb(42, 63, 95); fill-opacity: 1; white-space: pre; opacity: 1;">Oct/23</text></g></g><g class="yaxislayer-above"><g class="ytick"><text text-anchor="end" x="55" y="5.25" transform="translate(0,296.3)" style="font-family: 'Open Sans', verdana, arial, sans-serif; font-size: 15px; fill: rgb(42, 63, 95); fill-opacity: 1; white-space: pre; opacity: 1;">0</text></g><g class="ytick"><text text-anchor="end" x="55" y="5.25" style="font-family: 'Open Sans', verdana, arial, sans-serif; font-size: 15px; fill: rgb(42, 63, 95); fill-opacity: 1; white-space: pre; opacity: 1;" transform="translate(0,250.33)">10</text></g><g class="ytick"><text text-anchor="end" x="55" y="5.25" style="font-family: 'Open Sans', verdana, arial, sans-serif; font-size: 15px; fill: rgb(42, 63, 95); fill-opacity: 1; white-space: pre; opacity: 1;" transform="translate(0,204.37)">20</text></g><g class="ytick"><text text-anchor="end" x="55" y="5.25" style="font-family: 'Open Sans', verdana, arial, sans-serif; font-size: 15px; fill: rgb(42, 63, 95); fill-opacity: 1; white-space: pre; opacity: 1;" transform="translate(0,158.4)">30</text></g><g class="ytick"><text text-anchor="end" x="55" y="5.25" style="font-family: 'Open Sans', verdana, arial, sans-serif; font-size: 15px; fill: rgb(42, 63, 95); fill-opacity: 1; white-space: pre; opacity: 1;" transform="translate(0,112.44)">40</text></g><g class="ytick"><text text-anchor="end" x="55" y="5.25" style="font-family: 'Open Sans', verdana, arial, sans-serif; font-size: 15px; fill: rgb(42, 63, 95); fill-opacity: 1; white-space: pre; opacity: 1;" transform="translate(0,66.47)">50</text></g><g class="ytick"><text text-anchor="end" x="55" y="5.25" style="font-family: 'Open Sans', verdana, arial, sans-serif; font-size: 15px; fill: rgb(42, 63, 95); fill-opacity: 1; white-space: pre; opacity: 1;" transform="translate(0,20.51)">60</text></g></g><g class="overaxes-above"/></g></g><g class="polarlayer"/><g class="smithlayer"/><g class="ternarylayer"/><g class="geolayer"/><g class="funnelarealayer"/><g class="pielayer"/><g class="iciclelayer"/><g class="treemaplayer"/><g class="sunburstlayer"/><g class="glimages"/><defs id="topdefs-9d3eb3"><g class="clips"/><clipPath id="legend9d3eb3"><rect width="136" height="101" x="0" y="0"/></clipPath></defs><g class="layer-above"><g class="imagelayer"/><g class="shapelayer"/></g><g class="infolayer"><g class="legend" pointer-events="all" transform="translate(503.78000000000003,20)"><rect class="bg" shape-rendering="crispEdges" width="136" height="101" x="0" y="0" style="stroke: rgb(68, 68, 68); stroke-opacity: 1; fill: rgb(255, 245, 238); fill-opacity: 1; stroke-width: 0px;"/><g class="scrollbox" transform="" clip-path="url(#legend9d3eb3)"><text class="legendtitletext" text-anchor="start" x="2" y="23.400000000000002" style="font-family: 'Open Sans', verdana, arial, sans-serif; font-size: 18px; fill: rgb(42, 63, 95); fill-opacity: 1; white-space: pre;">Crimes</text><g class="groups" transform=""><g class="traces" transform="translate(0,39.650000000000006)" style="opacity: 1;"><text class="legendtext" text-anchor="start" x="40" y="5.85" style="font-family: 'Open Sans', verdana, arial, sans-serif; font-size: 15px; fill: rgb(42, 63, 95); fill-opacity: 1; white-space: pre;">Sex. har.</text><g class="layers" style="opacity: 1;"><g class="legendfill"/><g class="legendlines"><path class="js-line" d="M5,0h30" style="fill: none; stroke: rgb(156, 15, 72); stroke-opacity: 1; stroke-width: 2px;"/></g><g class="legendsymbols"><g class="legendpoints"/></g></g><rect class="legendtoggle" x="0" y="-11.25" width="130.890625" height="22.5" style="fill: rgb(0, 0, 0); fill-opacity: 0;"/></g></g><g class="groups" transform=""><g class="traces" transform="translate(0,62.150000000000006)" style="opacity: 1;"><text class="legendtext" text-anchor="start" x="40" y="5.85" style="font-family: 'Open Sans', verdana, arial, sans-serif; font-size: 15px; fill: rgb(42, 63, 95); fill-opacity: 1; white-space: pre;">Rape of vuln.</text><g class="layers" style="opacity: 1;"><g class="legendfill"/><g class="legendlines"><path class="js-line" d="M5,0h30" style="fill: none; stroke: rgb(111, 207, 151); stroke-opacity: 1; stroke-width: 2px;"/></g><g class="legendsymbols"><g class="legendpoints"/></g></g><rect class="legendtoggle" x="0" y="-11.25" width="130.890625" height="22.5" style="fill: rgb(0, 0, 0); fill-opacity: 0;"/></g></g><g class="groups" transform=""><g class="traces" transform="translate(0,84.65)" style="opacity: 1;"><text class="legendtext" text-anchor="start" x="40" y="5.85" style="font-family: 'Open Sans', verdana, arial, sans-serif; font-size: 15px; fill: rgb(42, 63, 95); fill-opacity: 1; white-space: pre;">Psych. viol.</text><g class="layers" style="opacity: 1;"><g class="legendfill"/><g class="legendlines"><path class="js-line" d="M5,0h30" style="fill: none; stroke: rgb(114, 39, 112); stroke-opacity: 1; stroke-width: 2px;"/></g><g class="legendsymbols"><g class="legendpoints"/></g></g><rect class="legendtoggle" x="0" y="-11.25" width="130.890625" height="22.5" style="fill: rgb(0, 0, 0); fill-opacity: 0;"/></g></g></g><rect class="scrollbar" rx="20" ry="3" width="0" height="0" x="0" y="0" style="fill: rgb(128, 139, 164); fill-opacity: 1;"/></g><g class="g-gtitle"/><g class="g-xtitle"><text class="xtitle" x="275.5" y="389.50625" text-anchor="middle" style="font-family: 'Open Sans', verdana, arial, sans-serif; font-size: 18px; fill: rgb(42, 63, 95); opacity: 1; font-weight: normal; white-space: pre;">Month/Year</text></g><g class="g-ytitle"/></g></svg>